<svg width="356" height="333" viewBox="0 0 356 333" fill="none" xmlns="http://www.w3.org/2000/svg">
<rect width="356" height="333" rx="5" fill="white"/>
<g clip-path="url(#clip0_2715_2347)">
<rect x="16" y="18.5" width="24" height="24" rx="12" fill="#E4E5F0"/>
<path d="M31.5 26L24.5 30.5L31.5 35" stroke="#393939"/>
<path d="M112.456 22.152V25.44H105.592V28.992H110.728V32.184H105.592V39H101.488V22.152H112.456ZM126.037 32.088C126.037 32.472 126.013 32.872 125.965 33.288H116.677C116.741 34.12 117.005 34.76 117.469 35.208C117.949 35.64 118.533 35.856 119.221 35.856C120.245 35.856 120.957 35.424 121.357 34.56H125.725C125.501 35.44 125.093 36.232 124.501 36.936C123.925 37.64 123.197 38.192 122.317 38.592C121.437 38.992 120.453 39.192 119.365 39.192C118.053 39.192 116.885 38.912 115.861 38.352C114.837 37.792 114.037 36.992 113.461 35.952C112.885 34.912 112.597 33.696 112.597 32.304C112.597 30.912 112.877 29.696 113.437 28.656C114.013 27.616 114.813 26.816 115.837 26.256C116.861 25.696 118.037 25.416 119.365 25.416C120.661 25.416 121.813 25.688 122.821 26.232C123.829 26.776 124.613 27.552 125.173 28.56C125.749 29.568 126.037 30.744 126.037 32.088ZM121.837 31.008C121.837 30.304 121.597 29.744 121.117 29.328C120.637 28.912 120.037 28.704 119.317 28.704C118.629 28.704 118.045 28.904 117.565 29.304C117.101 29.704 116.813 30.272 116.701 31.008H121.837ZM131.106 27.504C131.49 26.88 132.042 26.376 132.762 25.992C133.482 25.608 134.306 25.416 135.234 25.416C136.338 25.416 137.338 25.696 138.234 26.256C139.13 26.816 139.834 27.616 140.346 28.656C140.874 29.696 141.138 30.904 141.138 32.28C141.138 33.656 140.874 34.872 140.346 35.928C139.834 36.968 139.13 37.776 138.234 38.352C137.338 38.912 136.338 39.192 135.234 39.192C134.29 39.192 133.466 39.008 132.762 38.64C132.058 38.256 131.506 37.752 131.106 37.128V39H127.002V21.24H131.106V27.504ZM136.962 32.28C136.962 31.256 136.674 30.456 136.098 29.88C135.538 29.288 134.842 28.992 134.01 28.992C133.194 28.992 132.498 29.288 131.922 29.88C131.362 30.472 131.082 31.28 131.082 32.304C131.082 33.328 131.362 34.136 131.922 34.728C132.498 35.32 133.194 35.616 134.01 35.616C134.826 35.616 135.522 35.32 136.098 34.728C136.674 34.12 136.962 33.304 136.962 32.28ZM146.195 27.84C146.675 27.104 147.275 26.528 147.995 26.112C148.715 25.68 149.515 25.464 150.395 25.464V29.808H149.267C148.243 29.808 147.475 30.032 146.963 30.48C146.451 30.912 146.195 31.68 146.195 32.784V39H142.091V25.608H146.195V27.84ZM164.381 25.608V39H160.277V37.176C159.861 37.768 159.293 38.248 158.573 38.616C157.869 38.968 157.085 39.144 156.221 39.144C155.197 39.144 154.293 38.92 153.509 38.472C152.725 38.008 152.117 37.344 151.685 36.48C151.253 35.616 151.037 34.6 151.037 33.432V25.608H155.117V32.88C155.117 33.776 155.349 34.472 155.813 34.968C156.277 35.464 156.901 35.712 157.685 35.712C158.485 35.712 159.117 35.464 159.581 34.968C160.045 34.472 160.277 33.776 160.277 32.88V25.608H164.381ZM165.313 32.28C165.313 30.904 165.569 29.696 166.081 28.656C166.609 27.616 167.321 26.816 168.217 26.256C169.113 25.696 170.113 25.416 171.217 25.416C172.161 25.416 172.985 25.608 173.689 25.992C174.409 26.376 174.961 26.88 175.345 27.504V25.608H179.449V39H175.345V37.104C174.945 37.728 174.385 38.232 173.665 38.616C172.961 39 172.137 39.192 171.193 39.192C170.105 39.192 169.113 38.912 168.217 38.352C167.321 37.776 166.609 36.968 166.081 35.928C165.569 34.872 165.313 33.656 165.313 32.28ZM175.345 32.304C175.345 31.28 175.057 30.472 174.481 29.88C173.921 29.288 173.233 28.992 172.417 28.992C171.601 28.992 170.905 29.288 170.329 29.88C169.769 30.456 169.489 31.256 169.489 32.28C169.489 33.304 169.769 34.12 170.329 34.728C170.905 35.32 171.601 35.616 172.417 35.616C173.233 35.616 173.921 35.32 174.481 34.728C175.057 34.136 175.345 33.328 175.345 32.304ZM185.322 27.84C185.802 27.104 186.402 26.528 187.122 26.112C187.842 25.68 188.642 25.464 189.522 25.464V29.808H188.394C187.37 29.808 186.602 30.032 186.09 30.48C185.578 30.912 185.322 31.68 185.322 32.784V39H181.218V25.608H185.322V27.84ZM203.963 25.608L195.563 45.36H191.147L194.219 38.544L188.771 25.608H193.355L196.451 33.984L199.523 25.608H203.963ZM207.581 35.712C208.125 35.28 208.373 35.08 208.325 35.112C209.893 33.816 211.125 32.752 212.021 31.92C212.933 31.088 213.701 30.216 214.325 29.304C214.949 28.392 215.261 27.504 215.261 26.64C215.261 25.984 215.109 25.472 214.805 25.104C214.501 24.736 214.045 24.552 213.437 24.552C212.829 24.552 212.349 24.784 211.997 25.248C211.661 25.696 211.493 26.336 211.493 27.168H207.533C207.565 25.808 207.853 24.672 208.397 23.76C208.957 22.848 209.685 22.176 210.581 21.744C211.493 21.312 212.501 21.096 213.605 21.096C215.509 21.096 216.941 21.584 217.901 22.56C218.877 23.536 219.365 24.808 219.365 26.376C219.365 28.088 218.781 29.68 217.613 31.152C216.445 32.608 214.957 34.032 213.149 35.424H219.629V38.76H207.581V35.712ZM220.236 30C220.236 27.248 220.764 25.08 221.82 23.496C222.892 21.912 224.612 21.12 226.98 21.12C229.348 21.12 231.06 21.912 232.116 23.496C233.188 25.08 233.724 27.248 233.724 30C233.724 32.784 233.188 34.968 232.116 36.552C231.06 38.136 229.348 38.928 226.98 38.928C224.612 38.928 222.892 38.136 221.82 36.552C220.764 34.968 220.236 32.784 220.236 30ZM229.692 30C229.692 28.384 229.516 27.144 229.164 26.28C228.812 25.4 228.084 24.96 226.98 24.96C225.876 24.96 225.148 25.4 224.796 26.28C224.444 27.144 224.268 28.384 224.268 30C224.268 31.088 224.332 31.992 224.46 32.712C224.588 33.416 224.844 33.992 225.228 34.44C225.628 34.872 226.212 35.088 226.98 35.088C227.748 35.088 228.324 34.872 228.708 34.44C229.108 33.992 229.372 33.416 229.5 32.712C229.628 31.992 229.692 31.088 229.692 30ZM234.549 35.712C235.093 35.28 235.341 35.08 235.293 35.112C236.861 33.816 238.093 32.752 238.989 31.92C239.901 31.088 240.669 30.216 241.293 29.304C241.917 28.392 242.229 27.504 242.229 26.64C242.229 25.984 242.077 25.472 241.773 25.104C241.469 24.736 241.013 24.552 240.405 24.552C239.797 24.552 239.317 24.784 238.965 25.248C238.629 25.696 238.461 26.336 238.461 27.168H234.501C234.533 25.808 234.821 24.672 235.365 23.76C235.925 22.848 236.653 22.176 237.549 21.744C238.461 21.312 239.469 21.096 240.573 21.096C242.477 21.096 243.909 21.584 244.869 22.56C245.845 23.536 246.333 24.808 246.333 26.376C246.333 28.088 245.749 29.68 244.581 31.152C243.413 32.608 241.925 34.032 240.117 35.424H246.597V38.76H234.549V35.712ZM246.771 25.296V21.48H253.419V39H249.147V25.296H246.771Z" fill="#393939"/>
<rect x="340" y="42.5" width="24" height="24" rx="12" transform="rotate(-180 340 42.5)" fill="#E4E5F0"/>
<path d="M324.5 35L331.5 30.5L324.5 26" stroke="#393939"/>
</g>
<g clip-path="url(#clip1_2715_2347)">
<g clip-path="url(#clip2_2715_2347)">
<path opacity="0.5" d="M26.976 70.312V80H25.702V72.776L22.482 80H21.586L18.352 72.762V80H17.078V70.312H18.45L22.034 78.32L25.618 70.312H26.976ZM33.5606 80.098C32.6553 80.098 31.8293 79.888 31.0826 79.468C30.3359 79.0387 29.7433 78.446 29.3046 77.69C28.8753 76.9247 28.6606 76.066 28.6606 75.114C28.6606 74.162 28.8753 73.308 29.3046 72.552C29.7433 71.7867 30.3359 71.194 31.0826 70.774C31.8293 70.3447 32.6553 70.13 33.5606 70.13C34.4753 70.13 35.3059 70.3447 36.0526 70.774C36.7993 71.194 37.3873 71.782 37.8166 72.538C38.2459 73.294 38.4606 74.1527 38.4606 75.114C38.4606 76.0753 38.2459 76.934 37.8166 77.69C37.3873 78.446 36.7993 79.0387 36.0526 79.468C35.3059 79.888 34.4753 80.098 33.5606 80.098ZM33.5606 78.992C34.2419 78.992 34.8533 78.8333 35.3946 78.516C35.9453 78.1987 36.3746 77.746 36.6826 77.158C36.9999 76.57 37.1586 75.8887 37.1586 75.114C37.1586 74.33 36.9999 73.6487 36.6826 73.07C36.3746 72.482 35.9499 72.0293 35.4086 71.712C34.8673 71.3947 34.2513 71.236 33.5606 71.236C32.8699 71.236 32.2539 71.3947 31.7126 71.712C31.1713 72.0293 30.7419 72.482 30.4246 73.07C30.1166 73.6487 29.9626 74.33 29.9626 75.114C29.9626 75.8887 30.1166 76.57 30.4246 77.158C30.7419 77.746 31.1713 78.1987 31.7126 78.516C32.2633 78.8333 32.8793 78.992 33.5606 78.992ZM47.8145 80H46.5405L41.4165 72.23V80H40.1425V70.228H41.4165L46.5405 77.984V70.228H47.8145V80Z" fill="#393939"/>
<path d="M30.532 117.24V116.078H33.164V126.2H31.876V117.24H30.532Z" fill="#393939"/>
<path d="M30.716 167.136C30.1933 166.931 29.792 166.632 29.512 166.24C29.232 165.848 29.092 165.372 29.092 164.812C29.092 164.308 29.218 163.855 29.47 163.454C29.722 163.043 30.0953 162.721 30.59 162.488C31.094 162.245 31.7007 162.124 32.41 162.124C33.1193 162.124 33.7213 162.245 34.216 162.488C34.72 162.721 35.098 163.043 35.35 163.454C35.6113 163.855 35.742 164.308 35.742 164.812C35.742 165.353 35.5973 165.829 35.308 166.24C35.0187 166.641 34.622 166.94 34.118 167.136C34.6967 167.313 35.154 167.626 35.49 168.074C35.8353 168.513 36.008 169.045 36.008 169.67C36.008 170.277 35.8587 170.809 35.56 171.266C35.2613 171.714 34.8367 172.064 34.286 172.316C33.7447 172.559 33.1193 172.68 32.41 172.68C31.7007 172.68 31.0753 172.559 30.534 172.316C30.002 172.064 29.5867 171.714 29.288 171.266C28.9893 170.809 28.84 170.277 28.84 169.67C28.84 169.045 29.008 168.508 29.344 168.06C29.68 167.612 30.1373 167.304 30.716 167.136ZM34.51 164.966C34.51 164.397 34.3233 163.958 33.95 163.65C33.5767 163.342 33.0633 163.188 32.41 163.188C31.766 163.188 31.2573 163.342 30.884 163.65C30.5107 163.958 30.324 164.401 30.324 164.98C30.324 165.503 30.5153 165.923 30.898 166.24C31.29 166.557 31.794 166.716 32.41 166.716C33.0353 166.716 33.5393 166.557 33.922 166.24C34.314 165.913 34.51 165.489 34.51 164.966ZM32.41 167.696C31.7193 167.696 31.1547 167.859 30.716 168.186C30.2773 168.503 30.058 168.984 30.058 169.628C30.058 170.225 30.268 170.706 30.688 171.07C31.1173 171.434 31.6913 171.616 32.41 171.616C33.1287 171.616 33.698 171.434 34.118 171.07C34.538 170.706 34.748 170.225 34.748 169.628C34.748 169.003 34.5333 168.527 34.104 168.2C33.6747 167.864 33.11 167.696 32.41 167.696Z" fill="#393939"/>
<path d="M26.032 209.64V208.478H28.664V218.6H27.376V209.64H26.032ZM37.3064 209.584H32.3924V212.776C32.607 212.477 32.9244 212.235 33.3444 212.048C33.7644 211.852 34.217 211.754 34.7024 211.754C35.477 211.754 36.107 211.917 36.5924 212.244C37.0777 212.561 37.423 212.977 37.6284 213.49C37.843 213.994 37.9504 214.531 37.9504 215.1C37.9504 215.772 37.8244 216.374 37.5724 216.906C37.3204 217.438 36.933 217.858 36.4104 218.166C35.897 218.474 35.2577 218.628 34.4924 218.628C33.5124 218.628 32.719 218.376 32.1124 217.872C31.5057 217.368 31.137 216.696 31.0064 215.856H32.2524C32.3737 216.388 32.6304 216.803 33.0224 217.102C33.4144 217.401 33.909 217.55 34.5064 217.55C35.2437 217.55 35.799 217.331 36.1724 216.892C36.5457 216.444 36.7324 215.856 36.7324 215.128C36.7324 214.4 36.5457 213.84 36.1724 213.448C35.799 213.047 35.2484 212.846 34.5204 212.846C34.0257 212.846 33.5917 212.967 33.2184 213.21C32.8544 213.443 32.5884 213.765 32.4204 214.176H31.2164V208.464H37.3064V209.584Z" fill="#393939"/>
<path d="M24.714 263.778C25.8993 262.826 26.828 262.047 27.5 261.44C28.172 260.824 28.7367 260.185 29.194 259.522C29.6607 258.85 29.894 258.192 29.894 257.548C29.894 256.941 29.7447 256.465 29.446 256.12C29.1567 255.765 28.6853 255.588 28.032 255.588C27.3973 255.588 26.9027 255.789 26.548 256.19C26.2027 256.582 26.016 257.109 25.988 257.772H24.756C24.7933 256.727 25.1107 255.919 25.708 255.35C26.3053 254.781 27.0753 254.496 28.018 254.496C28.9793 254.496 29.74 254.762 30.3 255.294C30.8693 255.826 31.154 256.559 31.154 257.492C31.154 258.267 30.9207 259.023 30.454 259.76C29.9967 260.488 29.474 261.132 28.886 261.692C28.298 262.243 27.5467 262.887 26.632 263.624H31.448V264.688H24.714V263.778ZM32.7667 263.778C33.9521 262.826 34.8807 262.047 35.5527 261.44C36.2247 260.824 36.7894 260.185 37.2467 259.522C37.7134 258.85 37.9467 258.192 37.9467 257.548C37.9467 256.941 37.7974 256.465 37.4987 256.12C37.2094 255.765 36.7381 255.588 36.0847 255.588C35.4501 255.588 34.9554 255.789 34.6007 256.19C34.2554 256.582 34.0687 257.109 34.0407 257.772H32.8087C32.8461 256.727 33.1634 255.919 33.7607 255.35C34.3581 254.781 35.1281 254.496 36.0707 254.496C37.0321 254.496 37.7927 254.762 38.3527 255.294C38.9221 255.826 39.2067 256.559 39.2067 257.492C39.2067 258.267 38.9734 259.023 38.5067 259.76C38.0494 260.488 37.5267 261.132 36.9387 261.692C36.3507 262.243 35.5994 262.887 34.6847 263.624H39.5007V264.688H32.7667V263.778Z" fill="#393939"/>
<path d="M24.714 309.978C25.8993 309.026 26.828 308.247 27.5 307.64C28.172 307.024 28.7367 306.385 29.194 305.722C29.6607 305.05 29.894 304.392 29.894 303.748C29.894 303.141 29.7447 302.665 29.446 302.32C29.1567 301.965 28.6853 301.788 28.032 301.788C27.3973 301.788 26.9027 301.989 26.548 302.39C26.2027 302.782 26.016 303.309 25.988 303.972H24.756C24.7933 302.927 25.1107 302.119 25.708 301.55C26.3053 300.981 27.0753 300.696 28.018 300.696C28.9793 300.696 29.74 300.962 30.3 301.494C30.8693 302.026 31.154 302.759 31.154 303.692C31.154 304.467 30.9207 305.223 30.454 305.96C29.9967 306.688 29.474 307.332 28.886 307.892C28.298 308.443 27.5467 309.087 26.632 309.824H31.448V310.888H24.714V309.978ZM34.5587 308.284C34.6521 308.816 34.8667 309.227 35.2027 309.516C35.5481 309.805 36.0101 309.95 36.5887 309.95C37.3634 309.95 37.9327 309.647 38.2967 309.04C38.6701 308.433 38.8474 307.411 38.8287 305.974C38.6327 306.394 38.3061 306.725 37.8487 306.968C37.3914 307.201 36.8827 307.318 36.3227 307.318C35.6974 307.318 35.1374 307.192 34.6427 306.94C34.1574 306.679 33.7747 306.301 33.4947 305.806C33.2147 305.311 33.0747 304.714 33.0747 304.014C33.0747 303.015 33.3641 302.213 33.9427 301.606C34.5214 300.99 35.3427 300.682 36.4067 300.682C37.7134 300.682 38.6281 301.107 39.1507 301.956C39.6827 302.805 39.9487 304.07 39.9487 305.75C39.9487 306.926 39.8414 307.897 39.6267 308.662C39.4214 309.427 39.0667 310.011 38.5627 310.412C38.0681 310.813 37.3867 311.014 36.5187 311.014C35.5667 311.014 34.8247 310.757 34.2927 310.244C33.7607 309.731 33.4574 309.077 33.3827 308.284H34.5587ZM36.5327 306.24C37.1581 306.24 37.6714 306.049 38.0727 305.666C38.4741 305.274 38.6747 304.747 38.6747 304.084C38.6747 303.384 38.4787 302.819 38.0867 302.39C37.6947 301.961 37.1441 301.746 36.4347 301.746C35.7814 301.746 35.2587 301.951 34.8667 302.362C34.4841 302.773 34.2927 303.314 34.2927 303.986C34.2927 304.667 34.4841 305.213 34.8667 305.624C35.2494 306.035 35.8047 306.24 36.5327 306.24Z" fill="#393939"/>
</g>
<g clip-path="url(#clip3_2715_2347)">
<path opacity="0.5" d="M80.018 72.236H76.966V81H75.804V72.236H72.752V71.2H80.018V72.236ZM87.0836 71.2H88.2036V77.738C88.2036 78.326 88.1243 78.8347 87.9656 79.264C87.8163 79.6933 87.597 80.048 87.3076 80.328C87.0276 80.5987 86.687 80.7993 86.2856 80.93C85.8843 81.0607 85.441 81.126 84.9556 81.126C83.7983 81.126 82.9256 80.8647 82.3376 80.342C81.7496 79.8193 81.4556 79.026 81.4556 77.962V71.2H82.6176V77.416C82.6176 77.9107 82.6643 78.3307 82.7576 78.676C82.8603 79.012 83.0096 79.2873 83.2056 79.502C83.4016 79.7073 83.6443 79.8567 83.9336 79.95C84.2323 80.0433 84.5776 80.09 84.9696 80.09C85.7256 80.09 86.267 79.8847 86.5936 79.474C86.9203 79.054 87.0836 78.368 87.0836 77.416V71.2ZM90.5884 71.2H95.9224V72.236H91.7504V75.442H95.5724V76.478H91.7504V79.964H95.9924V81H90.5884V71.2Z" fill="#393939"/>
<path d="M87.244 118.826C87.244 119.321 87.1507 119.829 86.964 120.352C86.7867 120.865 86.5487 121.383 86.25 121.906C85.9607 122.429 85.634 122.942 85.27 123.446C84.906 123.941 84.542 124.412 84.178 124.86L83.492 125.462V125.518L84.388 125.364H87.44V126.4H81.868V125.994C82.0733 125.779 82.3207 125.513 82.61 125.196C82.8993 124.879 83.198 124.529 83.506 124.146C83.8233 123.754 84.1313 123.343 84.43 122.914C84.738 122.475 85.0133 122.032 85.256 121.584C85.508 121.136 85.7087 120.693 85.858 120.254C86.0073 119.815 86.082 119.4 86.082 119.008C86.082 118.551 85.9513 118.173 85.69 117.874C85.4287 117.566 85.032 117.412 84.5 117.412C84.1453 117.412 83.8 117.487 83.464 117.636C83.128 117.776 82.8387 117.939 82.596 118.126L82.134 117.328C82.4607 117.048 82.848 116.829 83.296 116.67C83.744 116.511 84.2247 116.432 84.738 116.432C85.1393 116.432 85.494 116.493 85.802 116.614C86.11 116.726 86.3713 116.889 86.586 117.104C86.8007 117.319 86.964 117.575 87.076 117.874C87.188 118.163 87.244 118.481 87.244 118.826Z" fill="#393939"/>
<path d="M81.728 164.968C81.728 164.52 81.7933 164.105 81.924 163.722C82.0547 163.339 82.246 163.008 82.498 162.728C82.75 162.448 83.0627 162.229 83.436 162.07C83.8187 161.911 84.262 161.832 84.766 161.832C85.718 161.832 86.46 162.14 86.992 162.756C87.524 163.372 87.79 164.24 87.79 165.36C87.79 166.415 87.6687 167.339 87.426 168.132C87.1927 168.916 86.866 169.579 86.446 170.12C86.026 170.661 85.5267 171.086 84.948 171.394C84.3787 171.693 83.758 171.884 83.086 171.968L82.834 171.072C83.3753 170.988 83.8607 170.829 84.29 170.596C84.7287 170.363 85.102 170.069 85.41 169.714C85.7273 169.359 85.984 168.958 86.18 168.51C86.376 168.053 86.5113 167.558 86.586 167.026C86.334 167.325 86.054 167.535 85.746 167.656C85.4473 167.768 85.0507 167.824 84.556 167.824C84.1733 167.824 83.8093 167.763 83.464 167.642C83.128 167.511 82.8293 167.325 82.568 167.082C82.3067 166.839 82.1013 166.541 81.952 166.186C81.8027 165.831 81.728 165.425 81.728 164.968ZM82.89 164.856C82.89 165.519 83.0627 166.018 83.408 166.354C83.7627 166.681 84.2247 166.844 84.794 166.844C85.2513 166.844 85.6433 166.769 85.97 166.62C86.2967 166.471 86.53 166.275 86.67 166.032C86.6887 165.911 86.698 165.803 86.698 165.71C86.698 165.617 86.698 165.519 86.698 165.416C86.698 165.08 86.656 164.758 86.572 164.45C86.4973 164.133 86.3807 163.853 86.222 163.61C86.0633 163.358 85.8533 163.162 85.592 163.022C85.34 162.882 85.0413 162.812 84.696 162.812C84.1267 162.812 83.6833 162.994 83.366 163.358C83.0487 163.713 82.89 164.212 82.89 164.856Z" fill="#393939"/>
<rect x="72.5" y="201.2" width="25" height="25" rx="5" fill="#B42004"/>
<path d="M79.012 218.164H80.972V211.388L81.112 210.562L80.552 211.22L79.012 212.326L78.48 211.612L81.56 209.232H82.064V218.164H83.982V219.2H79.012V218.164ZM92.0169 216.246C92.0169 216.675 91.9516 217.081 91.8209 217.464C91.6902 217.837 91.4989 218.169 91.2469 218.458C90.9949 218.738 90.6822 218.962 90.3089 219.13C89.9356 219.289 89.5109 219.368 89.0349 219.368C88.5682 219.368 88.1482 219.293 87.7749 219.144C87.4016 218.995 87.0796 218.775 86.8089 218.486C86.5382 218.187 86.3282 217.823 86.1789 217.394C86.0389 216.965 85.9689 216.47 85.9689 215.91C85.9689 214.986 86.0856 214.137 86.3189 213.362C86.5616 212.578 86.8929 211.897 87.3129 211.318C87.7329 210.739 88.2276 210.273 88.7969 209.918C89.3756 209.554 90.0009 209.325 90.6729 209.232L90.9109 210.128C90.3882 210.221 89.9122 210.399 89.4829 210.66C89.0536 210.921 88.6756 211.243 88.3489 211.626C88.0316 212.009 87.7702 212.438 87.5649 212.914C87.3596 213.39 87.2196 213.88 87.1449 214.384C87.2942 214.132 87.5462 213.903 87.9009 213.698C88.2556 213.483 88.6896 213.376 89.2029 213.376C90.0802 213.376 90.7662 213.628 91.2609 214.132C91.7649 214.636 92.0169 215.341 92.0169 216.246ZM90.8549 216.358C90.8549 215.695 90.7009 215.196 90.3929 214.86C90.0849 214.524 89.6089 214.356 88.9649 214.356C88.5076 214.356 88.1109 214.468 87.7749 214.692C87.4482 214.916 87.2196 215.168 87.0889 215.448C87.0702 215.579 87.0609 215.686 87.0609 215.77C87.0609 215.854 87.0609 215.947 87.0609 216.05C87.0609 216.339 87.0982 216.624 87.1729 216.904C87.2569 217.184 87.3829 217.436 87.5509 217.66C87.7189 217.875 87.9242 218.052 88.1669 218.192C88.4189 218.323 88.7129 218.388 89.0489 218.388C89.3196 218.388 89.5622 218.337 89.7769 218.234C90.0009 218.131 90.1922 217.991 90.3509 217.814C90.5096 217.637 90.6309 217.422 90.7149 217.17C90.8082 216.918 90.8549 216.647 90.8549 216.358Z" fill="white"/>
<path d="M83.244 259.026C83.244 259.521 83.1507 260.029 82.964 260.552C82.7867 261.065 82.5487 261.583 82.25 262.106C81.9607 262.629 81.634 263.142 81.27 263.646C80.906 264.141 80.542 264.612 80.178 265.06L79.492 265.662V265.718L80.388 265.564H83.44V266.6H77.868V266.194C78.0733 265.979 78.3207 265.713 78.61 265.396C78.8993 265.079 79.198 264.729 79.506 264.346C79.8233 263.954 80.1313 263.543 80.43 263.114C80.738 262.675 81.0133 262.232 81.256 261.784C81.508 261.336 81.7087 260.893 81.858 260.454C82.0073 260.015 82.082 259.6 82.082 259.208C82.082 258.751 81.9513 258.373 81.69 258.074C81.4287 257.766 81.032 257.612 80.5 257.612C80.1453 257.612 79.8 257.687 79.464 257.836C79.128 257.976 78.8387 258.139 78.596 258.326L78.134 257.528C78.4607 257.248 78.848 257.029 79.296 256.87C79.744 256.711 80.2247 256.632 80.738 256.632C81.1393 256.632 81.494 256.693 81.802 256.814C82.11 256.926 82.3713 257.089 82.586 257.304C82.8007 257.519 82.964 257.775 83.076 258.074C83.188 258.363 83.244 258.681 83.244 259.026ZM87.9049 265.788C88.2222 265.788 88.5162 265.741 88.7869 265.648C89.0576 265.555 89.2909 265.419 89.4869 265.242C89.6829 265.055 89.8369 264.836 89.9489 264.584C90.0609 264.332 90.1169 264.057 90.1169 263.758C90.1169 263.105 89.9209 262.619 89.5289 262.302C89.1462 261.985 88.6142 261.826 87.9329 261.826H86.8969V261.42L88.9129 258.312L89.5569 257.696L88.6469 257.836H85.8749V256.8H90.8729V257.206L88.6469 260.552L88.1569 260.958V260.986L88.6329 260.888C89.0062 260.897 89.3516 260.967 89.6689 261.098C89.9862 261.219 90.2616 261.401 90.4949 261.644C90.7282 261.877 90.9102 262.162 91.0409 262.498C91.1716 262.825 91.2369 263.198 91.2369 263.618C91.2369 264.122 91.1482 264.57 90.9709 264.962C90.7936 265.354 90.5509 265.685 90.2429 265.956C89.9442 266.217 89.5896 266.418 89.1789 266.558C88.7682 266.698 88.3342 266.768 87.8769 266.768C87.4569 266.768 87.0789 266.735 86.7429 266.67C86.4069 266.605 86.1129 266.521 85.8609 266.418L86.1549 265.424C86.3696 265.527 86.6216 265.615 86.9109 265.69C87.2096 265.755 87.5409 265.788 87.9049 265.788Z" fill="#393939"/>
<path d="M80.276 311.188C80.5933 311.188 80.8873 311.141 81.158 311.048C81.4287 310.955 81.662 310.819 81.858 310.642C82.054 310.455 82.208 310.236 82.32 309.984C82.432 309.732 82.488 309.457 82.488 309.158C82.488 308.505 82.292 308.019 81.9 307.702C81.5173 307.385 80.9853 307.226 80.304 307.226H79.268V306.82L81.284 303.712L81.928 303.096L81.018 303.236H78.246V302.2H83.244V302.606L81.018 305.952L80.528 306.358V306.386L81.004 306.288C81.3773 306.297 81.7227 306.367 82.04 306.498C82.3573 306.619 82.6327 306.801 82.866 307.044C83.0993 307.277 83.2813 307.562 83.412 307.898C83.5427 308.225 83.608 308.598 83.608 309.018C83.608 309.522 83.5193 309.97 83.342 310.362C83.1647 310.754 82.922 311.085 82.614 311.356C82.3153 311.617 81.9607 311.818 81.55 311.958C81.1393 312.098 80.7053 312.168 80.248 312.168C79.828 312.168 79.45 312.135 79.114 312.07C78.778 312.005 78.484 311.921 78.232 311.818L78.526 310.824C78.7407 310.927 78.9927 311.015 79.282 311.09C79.5807 311.155 79.912 311.188 80.276 311.188ZM85.2309 307.1C85.2309 305.42 85.5016 304.155 86.0429 303.306C86.5936 302.457 87.3916 302.032 88.4369 302.032C89.5662 302.032 90.3829 302.452 90.8869 303.292C91.4002 304.123 91.6569 305.392 91.6569 307.1C91.6569 308.78 91.3816 310.045 90.8309 310.894C90.2896 311.743 89.4916 312.168 88.4369 312.168C87.3262 312.168 86.5142 311.725 86.0009 310.838C85.4876 309.951 85.2309 308.705 85.2309 307.1ZM86.3929 307.1C86.3929 307.707 86.4302 308.262 86.5049 308.766C86.5889 309.261 86.7149 309.69 86.8829 310.054C87.0509 310.409 87.2609 310.689 87.5129 310.894C87.7742 311.09 88.0822 311.188 88.4369 311.188C89.1462 311.188 89.6642 310.861 89.9909 310.208C90.3269 309.545 90.4949 308.509 90.4949 307.1C90.4949 306.503 90.4576 305.952 90.3829 305.448C90.3176 304.944 90.2009 304.51 90.0329 304.146C89.8742 303.782 89.6642 303.502 89.4029 303.306C89.1416 303.11 88.8196 303.012 88.4369 303.012C87.7369 303.012 87.2189 303.343 86.8829 304.006C86.5562 304.669 86.3929 305.7 86.3929 307.1Z" fill="#393939"/>
</g>
<g clip-path="url(#clip4_2715_2347)">
<path opacity="0.5" d="M124.108 77.766L124.332 79.39H124.346L124.584 77.738L126.6 71.2H127.16L129.19 77.766L129.428 79.39H129.442L129.694 77.738L131.346 71.2H132.48L129.75 81.154H129.106L127.118 74.588L126.866 73.104H126.796L126.544 74.602L124.556 81.154H123.912L121.112 71.2H122.344L124.108 77.766ZM133.784 71.2H139.118V72.236H134.946V75.442H138.768V76.478H134.946V79.964H139.188V81H133.784V71.2ZM141.29 71.2C141.467 71.172 141.663 71.1533 141.878 71.144C142.102 71.1253 142.33 71.116 142.564 71.116C142.806 71.1067 143.04 71.102 143.264 71.102C143.497 71.0927 143.712 71.088 143.908 71.088C144.692 71.088 145.368 71.2093 145.938 71.452C146.516 71.6947 146.992 72.0353 147.366 72.474C147.739 72.9033 148.014 73.4213 148.192 74.028C148.378 74.6347 148.472 75.302 148.472 76.03C148.472 76.6927 148.383 77.332 148.206 77.948C148.038 78.5547 147.767 79.096 147.394 79.572C147.02 80.0387 146.535 80.4167 145.938 80.706C145.34 80.986 144.617 81.126 143.768 81.126C143.618 81.126 143.422 81.1213 143.18 81.112C142.946 81.112 142.704 81.1027 142.452 81.084C142.2 81.0747 141.966 81.0653 141.752 81.056C141.537 81.0467 141.383 81.0327 141.29 81.014V71.2ZM143.936 72.124C143.814 72.124 143.679 72.124 143.53 72.124C143.39 72.124 143.25 72.1287 143.11 72.138C142.97 72.1473 142.839 72.1567 142.718 72.166C142.606 72.1753 142.517 72.1847 142.452 72.194V80.034C142.498 80.0433 142.587 80.0527 142.718 80.062C142.848 80.062 142.984 80.0667 143.124 80.076C143.264 80.076 143.399 80.0807 143.53 80.09C143.66 80.09 143.749 80.09 143.796 80.09C144.449 80.09 144.995 79.978 145.434 79.754C145.882 79.53 146.236 79.2313 146.498 78.858C146.768 78.4753 146.96 78.0413 147.072 77.556C147.184 77.0613 147.24 76.5527 147.24 76.03C147.24 75.5727 147.188 75.1153 147.086 74.658C146.983 74.1913 146.806 73.7713 146.554 73.398C146.302 73.0247 145.961 72.7213 145.532 72.488C145.112 72.2453 144.58 72.124 143.936 72.124Z" fill="#393939"/>
<path d="M134.776 126.388C135.093 126.388 135.387 126.341 135.658 126.248C135.929 126.155 136.162 126.019 136.358 125.842C136.554 125.655 136.708 125.436 136.82 125.184C136.932 124.932 136.988 124.657 136.988 124.358C136.988 123.705 136.792 123.219 136.4 122.902C136.017 122.585 135.485 122.426 134.804 122.426H133.768V122.02L135.784 118.912L136.428 118.296L135.518 118.436H132.746V117.4H137.744V117.806L135.518 121.152L135.028 121.558V121.586L135.504 121.488C135.877 121.497 136.223 121.567 136.54 121.698C136.857 121.819 137.133 122.001 137.366 122.244C137.599 122.477 137.781 122.762 137.912 123.098C138.043 123.425 138.108 123.798 138.108 124.218C138.108 124.722 138.019 125.17 137.842 125.562C137.665 125.954 137.422 126.285 137.114 126.556C136.815 126.817 136.461 127.018 136.05 127.158C135.639 127.298 135.205 127.368 134.748 127.368C134.328 127.368 133.95 127.335 133.614 127.27C133.278 127.205 132.984 127.121 132.732 127.018L133.026 126.024C133.241 126.127 133.493 126.215 133.782 126.29C134.081 126.355 134.412 126.388 134.776 126.388Z" fill="#393939"/>
<path d="M129.012 172.364H130.972V165.588L131.112 164.762L130.552 165.42L129.012 166.526L128.48 165.812L131.56 163.432H132.064V172.364H133.982V173.4H129.012V172.364ZM135.731 168.5C135.731 166.82 136.002 165.555 136.543 164.706C137.094 163.857 137.892 163.432 138.937 163.432C140.066 163.432 140.883 163.852 141.387 164.692C141.9 165.523 142.157 166.792 142.157 168.5C142.157 170.18 141.882 171.445 141.331 172.294C140.79 173.143 139.992 173.568 138.937 173.568C137.826 173.568 137.014 173.125 136.501 172.238C135.988 171.351 135.731 170.105 135.731 168.5ZM136.893 168.5C136.893 169.107 136.93 169.662 137.005 170.166C137.089 170.661 137.215 171.09 137.383 171.454C137.551 171.809 137.761 172.089 138.013 172.294C138.274 172.49 138.582 172.588 138.937 172.588C139.646 172.588 140.164 172.261 140.491 171.608C140.827 170.945 140.995 169.909 140.995 168.5C140.995 167.903 140.958 167.352 140.883 166.848C140.818 166.344 140.701 165.91 140.533 165.546C140.374 165.182 140.164 164.902 139.903 164.706C139.642 164.51 139.32 164.412 138.937 164.412C138.237 164.412 137.719 164.743 137.383 165.406C137.056 166.069 136.893 167.1 136.893 168.5Z" fill="#393939"/>
<path d="M129.012 218.564H130.972V211.788L131.112 210.962L130.552 211.62L129.012 212.726L128.48 212.012L131.56 209.632H132.064V218.564H133.982V219.6H129.012V218.564ZM136.669 219.6L140.183 211.396L140.799 210.71L139.973 210.836H135.983V209.8H141.835V210.178L137.803 219.6H136.669Z" fill="#393939"/>
<path d="M133.744 258.226C133.744 258.721 133.651 259.229 133.464 259.752C133.287 260.265 133.049 260.783 132.75 261.306C132.461 261.829 132.134 262.342 131.77 262.846C131.406 263.341 131.042 263.812 130.678 264.26L129.992 264.862V264.918L130.888 264.764H133.94V265.8H128.368V265.394C128.573 265.179 128.821 264.913 129.11 264.596C129.399 264.279 129.698 263.929 130.006 263.546C130.323 263.154 130.631 262.743 130.93 262.314C131.238 261.875 131.513 261.432 131.756 260.984C132.008 260.536 132.209 260.093 132.358 259.654C132.507 259.215 132.582 258.8 132.582 258.408C132.582 257.951 132.451 257.573 132.19 257.274C131.929 256.966 131.532 256.812 131 256.812C130.645 256.812 130.3 256.887 129.964 257.036C129.628 257.176 129.339 257.339 129.096 257.526L128.634 256.728C128.961 256.448 129.348 256.229 129.796 256.07C130.244 255.911 130.725 255.832 131.238 255.832C131.639 255.832 131.994 255.893 132.302 256.014C132.61 256.126 132.871 256.289 133.086 256.504C133.301 256.719 133.464 256.975 133.576 257.274C133.688 257.563 133.744 257.881 133.744 258.226ZM142.465 262.79H140.813V265.8H139.721V262.79H135.409V262.328L140.057 255.846H140.813V261.81H142.465V262.79ZM139.721 258.758L139.861 257.61H139.819L139.329 258.562L137.355 261.236L136.683 261.922L137.663 261.81H139.721V258.758Z" fill="#393939"/>
<path d="M130.776 311.188C131.093 311.188 131.387 311.141 131.658 311.048C131.929 310.955 132.162 310.819 132.358 310.642C132.554 310.455 132.708 310.236 132.82 309.984C132.932 309.732 132.988 309.457 132.988 309.158C132.988 308.505 132.792 308.019 132.4 307.702C132.017 307.385 131.485 307.226 130.804 307.226H129.768V306.82L131.784 303.712L132.428 303.096L131.518 303.236H128.746V302.2H133.744V302.606L131.518 305.952L131.028 306.358V306.386L131.504 306.288C131.877 306.297 132.223 306.367 132.54 306.498C132.857 306.619 133.133 306.801 133.366 307.044C133.599 307.277 133.781 307.562 133.912 307.898C134.043 308.225 134.108 308.598 134.108 309.018C134.108 309.522 134.019 309.97 133.842 310.362C133.665 310.754 133.422 311.085 133.114 311.356C132.815 311.617 132.461 311.818 132.05 311.958C131.639 312.098 131.205 312.168 130.748 312.168C130.328 312.168 129.95 312.135 129.614 312.07C129.278 312.005 128.984 311.921 128.732 311.818L129.026 310.824C129.241 310.927 129.493 311.015 129.782 311.09C130.081 311.155 130.412 311.188 130.776 311.188ZM136.641 310.964H138.601V304.188L138.741 303.362L138.181 304.02L136.641 305.126L136.109 304.412L139.189 302.032H139.693V310.964H141.611V312H136.641V310.964Z" fill="#393939"/>
</g>
<g clip-path="url(#clip5_2715_2347)">
<path opacity="0.5" d="M181.018 72.236H177.966V81H176.804V72.236H173.752V71.2H181.018V72.236ZM188.322 76.506H183.618V81H182.456V71.2H183.618V75.47H188.322V71.2H189.484V81H188.322V76.506ZM197.49 71.2H198.61V77.738C198.61 78.326 198.531 78.8347 198.372 79.264C198.223 79.6933 198.003 80.048 197.714 80.328C197.434 80.5987 197.093 80.7993 196.692 80.93C196.291 81.0607 195.847 81.126 195.362 81.126C194.205 81.126 193.332 80.8647 192.744 80.342C192.156 79.8193 191.862 79.026 191.862 77.962V71.2H193.024V77.416C193.024 77.9107 193.071 78.3307 193.164 78.676C193.267 79.012 193.416 79.2873 193.612 79.502C193.808 79.7073 194.051 79.8567 194.34 79.95C194.639 80.0433 194.984 80.09 195.376 80.09C196.132 80.09 196.673 79.8847 197 79.474C197.327 79.054 197.49 78.368 197.49 77.416V71.2Z" fill="#393939"/>
<path d="M190.336 124.19H188.684V127.2H187.592V124.19H183.28V123.728L187.928 117.246H188.684V123.21H190.336V124.19ZM187.592 120.158L187.732 119.01H187.69L187.2 119.962L185.226 122.636L184.554 123.322L185.534 123.21H187.592V120.158Z" fill="#393939"/>
<path d="M180.512 172.364H182.472V165.588L182.612 164.762L182.052 165.42L180.512 166.526L179.98 165.812L183.06 163.432H183.564V172.364H185.482V173.4H180.512V172.364ZM188.141 172.364H190.101V165.588L190.241 164.762L189.681 165.42L188.141 166.526L187.609 165.812L190.689 163.432H191.193V172.364H193.111V173.4H188.141V172.364Z" fill="#393939"/>
<path d="M180.512 218.564H182.472V211.788L182.612 210.962L182.052 211.62L180.512 212.726L179.98 212.012L183.06 209.632H183.564V218.564H185.482V219.6H180.512V218.564ZM187.581 217.262C187.581 216.674 187.735 216.165 188.043 215.736C188.351 215.297 188.832 214.901 189.485 214.546C189.252 214.406 189.032 214.261 188.827 214.112C188.631 213.953 188.454 213.776 188.295 213.58C188.146 213.384 188.024 213.165 187.931 212.922C187.847 212.679 187.805 212.399 187.805 212.082C187.805 211.718 187.866 211.387 187.987 211.088C188.118 210.789 188.3 210.533 188.533 210.318C188.776 210.103 189.06 209.935 189.387 209.814C189.723 209.693 190.101 209.632 190.521 209.632C190.913 209.632 191.268 209.688 191.585 209.8C191.902 209.912 192.168 210.066 192.383 210.262C192.607 210.458 192.78 210.691 192.901 210.962C193.022 211.233 193.083 211.531 193.083 211.858C193.083 212.39 192.962 212.861 192.719 213.272C192.476 213.673 192.075 214.07 191.515 214.462C191.758 214.602 191.986 214.756 192.201 214.924C192.425 215.092 192.616 215.279 192.775 215.484C192.943 215.689 193.074 215.923 193.167 216.184C193.26 216.436 193.307 216.725 193.307 217.052C193.307 217.453 193.242 217.822 193.111 218.158C192.98 218.485 192.789 218.769 192.537 219.012C192.285 219.245 191.977 219.432 191.613 219.572C191.249 219.703 190.834 219.768 190.367 219.768C189.919 219.768 189.522 219.703 189.177 219.572C188.832 219.441 188.538 219.264 188.295 219.04C188.062 218.816 187.884 218.555 187.763 218.256C187.642 217.948 187.581 217.617 187.581 217.262ZM192.215 217.122C192.215 216.842 192.159 216.599 192.047 216.394C191.935 216.179 191.786 215.988 191.599 215.82C191.422 215.643 191.216 215.484 190.983 215.344C190.75 215.204 190.507 215.069 190.255 214.938C189.686 215.255 189.28 215.61 189.037 216.002C188.794 216.394 188.673 216.767 188.673 217.122C188.673 217.346 188.71 217.561 188.785 217.766C188.86 217.971 188.972 218.149 189.121 218.298C189.27 218.447 189.452 218.569 189.667 218.662C189.891 218.746 190.148 218.788 190.437 218.788C190.67 218.788 190.894 218.755 191.109 218.69C191.324 218.615 191.51 218.513 191.669 218.382C191.837 218.242 191.968 218.069 192.061 217.864C192.164 217.649 192.215 217.402 192.215 217.122ZM188.897 212.054C188.897 212.315 188.948 212.549 189.051 212.754C189.154 212.95 189.289 213.127 189.457 213.286C189.634 213.445 189.835 213.594 190.059 213.734C190.283 213.865 190.516 213.991 190.759 214.112C191.179 213.785 191.487 213.463 191.683 213.146C191.888 212.829 191.991 212.479 191.991 212.096C191.991 211.62 191.842 211.256 191.543 211.004C191.254 210.743 190.904 210.612 190.493 210.612C190.241 210.612 190.017 210.654 189.821 210.738C189.625 210.822 189.457 210.929 189.317 211.06C189.177 211.191 189.07 211.345 188.995 211.522C188.93 211.69 188.897 211.867 188.897 212.054Z" fill="#393939"/>
<path d="M185.244 258.226C185.244 258.721 185.151 259.229 184.964 259.752C184.787 260.265 184.549 260.783 184.25 261.306C183.961 261.829 183.634 262.342 183.27 262.846C182.906 263.341 182.542 263.812 182.178 264.26L181.492 264.862V264.918L182.388 264.764H185.44V265.8H179.868V265.394C180.073 265.179 180.321 264.913 180.61 264.596C180.899 264.279 181.198 263.929 181.506 263.546C181.823 263.154 182.131 262.743 182.43 262.314C182.738 261.875 183.013 261.432 183.256 260.984C183.508 260.536 183.709 260.093 183.858 259.654C184.007 259.215 184.082 258.8 184.082 258.408C184.082 257.951 183.951 257.573 183.69 257.274C183.429 256.966 183.032 256.812 182.5 256.812C182.145 256.812 181.8 256.887 181.464 257.036C181.128 257.176 180.839 257.339 180.596 257.526L180.134 256.728C180.461 256.448 180.848 256.229 181.296 256.07C181.744 255.911 182.225 255.832 182.738 255.832C183.139 255.832 183.494 255.893 183.802 256.014C184.11 256.126 184.371 256.289 184.586 256.504C184.801 256.719 184.964 256.975 185.076 257.274C185.188 257.563 185.244 257.881 185.244 258.226ZM189.611 264.988C190.255 264.988 190.787 264.801 191.207 264.428C191.627 264.055 191.837 263.513 191.837 262.804C191.837 262.123 191.627 261.614 191.207 261.278C190.796 260.942 190.227 260.774 189.499 260.774L188.323 260.844V256H192.691V257.036H189.373V259.822L189.975 259.794C190.899 259.803 191.627 260.06 192.159 260.564C192.691 261.068 192.957 261.791 192.957 262.734C192.957 263.257 192.868 263.723 192.691 264.134C192.514 264.535 192.271 264.871 191.963 265.142C191.664 265.413 191.31 265.618 190.899 265.758C190.488 265.898 190.05 265.968 189.583 265.968C189.163 265.968 188.808 265.945 188.519 265.898C188.23 265.851 187.959 265.781 187.707 265.688L188.001 264.736C188.216 264.82 188.444 264.885 188.687 264.932C188.939 264.969 189.247 264.988 189.611 264.988Z" fill="#393939"/>
<path opacity="0.5" d="M184.512 310.964H186.472V304.188L186.612 303.362L186.052 304.02L184.512 305.126L183.98 304.412L187.06 302.032H187.564V310.964H189.482V312H184.512V310.964Z" fill="#393939"/>
</g>
<g clip-path="url(#clip6_2715_2347)">
<path opacity="0.5" d="M225.19 71.2H230.524V72.236H226.352V75.582H230.244V76.618H226.352V81H225.19V71.2ZM232.422 71.298C232.777 71.2327 233.183 71.1813 233.64 71.144C234.107 71.1067 234.532 71.088 234.914 71.088C235.344 71.088 235.75 71.1347 236.132 71.228C236.524 71.3213 236.865 71.4753 237.154 71.69C237.453 71.9047 237.691 72.1847 237.868 72.53C238.046 72.8753 238.134 73.2953 238.134 73.79C238.134 74.5553 237.924 75.176 237.504 75.652C237.084 76.128 236.552 76.4453 235.908 76.604L236.58 77.122L239.016 81H237.658L234.956 76.772L233.584 76.562V81H232.422V71.298ZM234.942 72.096C234.821 72.096 234.695 72.096 234.564 72.096C234.434 72.096 234.308 72.1007 234.186 72.11C234.065 72.1193 233.948 72.1287 233.836 72.138C233.734 72.1473 233.65 72.1613 233.584 72.18V75.792H234.676C235.32 75.792 235.852 75.6333 236.272 75.316C236.692 74.9987 236.902 74.504 236.902 73.832C236.902 73.328 236.73 72.9127 236.384 72.586C236.039 72.2593 235.558 72.096 234.942 72.096ZM241.015 71.2H242.177V81H241.015V71.2Z" fill="#393939"/>
<path d="M232.982 126.388C233.626 126.388 234.158 126.201 234.578 125.828C234.998 125.455 235.208 124.913 235.208 124.204C235.208 123.523 234.998 123.014 234.578 122.678C234.167 122.342 233.598 122.174 232.87 122.174L231.694 122.244V117.4H236.062V118.436H232.744V121.222L233.346 121.194C234.27 121.203 234.998 121.46 235.53 121.964C236.062 122.468 236.328 123.191 236.328 124.134C236.328 124.657 236.239 125.123 236.062 125.534C235.885 125.935 235.642 126.271 235.334 126.542C235.035 126.813 234.681 127.018 234.27 127.158C233.859 127.298 233.421 127.368 232.954 127.368C232.534 127.368 232.179 127.345 231.89 127.298C231.601 127.251 231.33 127.181 231.078 127.088L231.372 126.136C231.587 126.22 231.815 126.285 232.058 126.332C232.31 126.369 232.618 126.388 232.982 126.388Z" fill="#393939"/>
<path d="M227.512 172.364H229.472V165.588L229.612 164.762L229.052 165.42L227.512 166.526L226.98 165.812L230.06 163.432H230.564V172.364H232.482V173.4H227.512V172.364ZM239.873 165.826C239.873 166.321 239.78 166.829 239.593 167.352C239.416 167.865 239.178 168.383 238.879 168.906C238.59 169.429 238.263 169.942 237.899 170.446C237.535 170.941 237.171 171.412 236.807 171.86L236.121 172.462V172.518L237.017 172.364H240.069V173.4H234.497V172.994C234.702 172.779 234.95 172.513 235.239 172.196C235.528 171.879 235.827 171.529 236.135 171.146C236.452 170.754 236.76 170.343 237.059 169.914C237.367 169.475 237.642 169.032 237.885 168.584C238.137 168.136 238.338 167.693 238.487 167.254C238.636 166.815 238.711 166.4 238.711 166.008C238.711 165.551 238.58 165.173 238.319 164.874C238.058 164.566 237.661 164.412 237.129 164.412C236.774 164.412 236.429 164.487 236.093 164.636C235.757 164.776 235.468 164.939 235.225 165.126L234.763 164.328C235.09 164.048 235.477 163.829 235.925 163.67C236.373 163.511 236.854 163.432 237.367 163.432C237.768 163.432 238.123 163.493 238.431 163.614C238.739 163.726 239 163.889 239.215 164.104C239.43 164.319 239.593 164.575 239.705 164.874C239.817 165.163 239.873 165.481 239.873 165.826Z" fill="#393939"/>
<path d="M227.512 218.564H229.472V211.788L229.612 210.962L229.052 211.62L227.512 212.726L226.98 212.012L230.06 209.632H230.564V218.564H232.482V219.6H227.512V218.564ZM234.357 212.768C234.357 212.32 234.422 211.905 234.553 211.522C234.684 211.139 234.875 210.808 235.127 210.528C235.379 210.248 235.692 210.029 236.065 209.87C236.448 209.711 236.891 209.632 237.395 209.632C238.347 209.632 239.089 209.94 239.621 210.556C240.153 211.172 240.419 212.04 240.419 213.16C240.419 214.215 240.298 215.139 240.055 215.932C239.822 216.716 239.495 217.379 239.075 217.92C238.655 218.461 238.156 218.886 237.577 219.194C237.008 219.493 236.387 219.684 235.715 219.768L235.463 218.872C236.004 218.788 236.49 218.629 236.919 218.396C237.358 218.163 237.731 217.869 238.039 217.514C238.356 217.159 238.613 216.758 238.809 216.31C239.005 215.853 239.14 215.358 239.215 214.826C238.963 215.125 238.683 215.335 238.375 215.456C238.076 215.568 237.68 215.624 237.185 215.624C236.802 215.624 236.438 215.563 236.093 215.442C235.757 215.311 235.458 215.125 235.197 214.882C234.936 214.639 234.73 214.341 234.581 213.986C234.432 213.631 234.357 213.225 234.357 212.768ZM235.519 212.656C235.519 213.319 235.692 213.818 236.037 214.154C236.392 214.481 236.854 214.644 237.423 214.644C237.88 214.644 238.272 214.569 238.599 214.42C238.926 214.271 239.159 214.075 239.299 213.832C239.318 213.711 239.327 213.603 239.327 213.51C239.327 213.417 239.327 213.319 239.327 213.216C239.327 212.88 239.285 212.558 239.201 212.25C239.126 211.933 239.01 211.653 238.851 211.41C238.692 211.158 238.482 210.962 238.221 210.822C237.969 210.682 237.67 210.612 237.325 210.612C236.756 210.612 236.312 210.794 235.995 211.158C235.678 211.513 235.519 212.012 235.519 212.656Z" fill="#393939"/>
<path d="M232.244 258.226C232.244 258.721 232.151 259.229 231.964 259.752C231.787 260.265 231.549 260.783 231.25 261.306C230.961 261.829 230.634 262.342 230.27 262.846C229.906 263.341 229.542 263.812 229.178 264.26L228.492 264.862V264.918L229.388 264.764H232.44V265.8H226.868V265.394C227.073 265.179 227.321 264.913 227.61 264.596C227.899 264.279 228.198 263.929 228.506 263.546C228.823 263.154 229.131 262.743 229.43 262.314C229.738 261.875 230.013 261.432 230.256 260.984C230.508 260.536 230.709 260.093 230.858 259.654C231.007 259.215 231.082 258.8 231.082 258.408C231.082 257.951 230.951 257.573 230.69 257.274C230.429 256.966 230.032 256.812 229.5 256.812C229.145 256.812 228.8 256.887 228.464 257.036C228.128 257.176 227.839 257.339 227.596 257.526L227.134 256.728C227.461 256.448 227.848 256.229 228.296 256.07C228.744 255.911 229.225 255.832 229.738 255.832C230.139 255.832 230.494 255.893 230.802 256.014C231.11 256.126 231.371 256.289 231.586 256.504C231.801 256.719 231.964 256.975 232.076 257.274C232.188 257.563 232.244 257.881 232.244 258.226ZM240.517 262.846C240.517 263.275 240.452 263.681 240.321 264.064C240.19 264.437 239.999 264.769 239.747 265.058C239.495 265.338 239.182 265.562 238.809 265.73C238.436 265.889 238.011 265.968 237.535 265.968C237.068 265.968 236.648 265.893 236.275 265.744C235.902 265.595 235.58 265.375 235.309 265.086C235.038 264.787 234.828 264.423 234.679 263.994C234.539 263.565 234.469 263.07 234.469 262.51C234.469 261.586 234.586 260.737 234.819 259.962C235.062 259.178 235.393 258.497 235.813 257.918C236.233 257.339 236.728 256.873 237.297 256.518C237.876 256.154 238.501 255.925 239.173 255.832L239.411 256.728C238.888 256.821 238.412 256.999 237.983 257.26C237.554 257.521 237.176 257.843 236.849 258.226C236.532 258.609 236.27 259.038 236.065 259.514C235.86 259.99 235.72 260.48 235.645 260.984C235.794 260.732 236.046 260.503 236.401 260.298C236.756 260.083 237.19 259.976 237.703 259.976C238.58 259.976 239.266 260.228 239.761 260.732C240.265 261.236 240.517 261.941 240.517 262.846ZM239.355 262.958C239.355 262.295 239.201 261.796 238.893 261.46C238.585 261.124 238.109 260.956 237.465 260.956C237.008 260.956 236.611 261.068 236.275 261.292C235.948 261.516 235.72 261.768 235.589 262.048C235.57 262.179 235.561 262.286 235.561 262.37C235.561 262.454 235.561 262.547 235.561 262.65C235.561 262.939 235.598 263.224 235.673 263.504C235.757 263.784 235.883 264.036 236.051 264.26C236.219 264.475 236.424 264.652 236.667 264.792C236.919 264.923 237.213 264.988 237.549 264.988C237.82 264.988 238.062 264.937 238.277 264.834C238.501 264.731 238.692 264.591 238.851 264.414C239.01 264.237 239.131 264.022 239.215 263.77C239.308 263.518 239.355 263.247 239.355 262.958Z" fill="#393939"/>
<path opacity="0.5" d="M236.244 304.426C236.244 304.921 236.151 305.429 235.964 305.952C235.787 306.465 235.549 306.983 235.25 307.506C234.961 308.029 234.634 308.542 234.27 309.046C233.906 309.541 233.542 310.012 233.178 310.46L232.492 311.062V311.118L233.388 310.964H236.44V312H230.868V311.594C231.073 311.379 231.321 311.113 231.61 310.796C231.899 310.479 232.198 310.129 232.506 309.746C232.823 309.354 233.131 308.943 233.43 308.514C233.738 308.075 234.013 307.632 234.256 307.184C234.508 306.736 234.709 306.293 234.858 305.854C235.007 305.415 235.082 305 235.082 304.608C235.082 304.151 234.951 303.773 234.69 303.474C234.429 303.166 234.032 303.012 233.5 303.012C233.145 303.012 232.8 303.087 232.464 303.236C232.128 303.376 231.839 303.539 231.596 303.726L231.134 302.928C231.461 302.648 231.848 302.429 232.296 302.27C232.744 302.111 233.225 302.032 233.738 302.032C234.139 302.032 234.494 302.093 234.802 302.214C235.11 302.326 235.371 302.489 235.586 302.704C235.801 302.919 235.964 303.175 236.076 303.474C236.188 303.763 236.244 304.081 236.244 304.426Z" fill="#393939"/>
</g>
<g clip-path="url(#clip7_2715_2347)">
<path opacity="0.5" d="M273.114 78.508C273.114 78.116 272.997 77.7987 272.764 77.556C272.531 77.304 272.237 77.0847 271.882 76.898C271.537 76.702 271.159 76.52 270.748 76.352C270.337 76.184 269.955 75.9833 269.6 75.75C269.255 75.5073 268.965 75.2133 268.732 74.868C268.499 74.5133 268.382 74.0653 268.382 73.524C268.382 72.7587 268.648 72.152 269.18 71.704C269.712 71.256 270.468 71.032 271.448 71.032C272.017 71.032 272.535 71.074 273.002 71.158C273.469 71.242 273.833 71.3493 274.094 71.48L273.744 72.502C273.529 72.3993 273.212 72.3013 272.792 72.208C272.381 72.1147 271.915 72.068 271.392 72.068C270.776 72.068 270.314 72.208 270.006 72.488C269.698 72.7587 269.544 73.0807 269.544 73.454C269.544 73.818 269.661 74.1213 269.894 74.364C270.127 74.6067 270.417 74.826 270.762 75.022C271.117 75.2087 271.499 75.3953 271.91 75.582C272.321 75.7687 272.699 75.988 273.044 76.24C273.399 76.4827 273.693 76.7767 273.926 77.122C274.159 77.4673 274.276 77.8967 274.276 78.41C274.276 78.83 274.201 79.208 274.052 79.544C273.903 79.88 273.683 80.1693 273.394 80.412C273.105 80.6547 272.755 80.8413 272.344 80.972C271.933 81.1027 271.467 81.168 270.944 81.168C270.244 81.168 269.665 81.112 269.208 81C268.751 80.8973 268.396 80.7807 268.144 80.65L268.536 79.6C268.751 79.7213 269.068 79.8427 269.488 79.964C269.908 80.076 270.379 80.132 270.902 80.132C271.21 80.132 271.499 80.104 271.77 80.048C272.041 79.9827 272.274 79.8847 272.47 79.754C272.666 79.614 272.82 79.4413 272.932 79.236C273.053 79.0307 273.114 78.788 273.114 78.508ZM280.79 78.284H277.178L276.198 81H275.05L278.76 71.046H279.292L283.016 81H281.798L280.79 78.284ZM277.556 77.276H280.44L279.348 74.294L278.998 72.81H278.984L278.633 74.322L277.556 77.276ZM289.702 72.236H286.65V81H285.488V72.236H282.436V71.2H289.702V72.236Z" fill="#393939"/>
<path d="M281.888 124.246C281.888 124.675 281.823 125.081 281.692 125.464C281.561 125.837 281.37 126.169 281.118 126.458C280.866 126.738 280.553 126.962 280.18 127.13C279.807 127.289 279.382 127.368 278.906 127.368C278.439 127.368 278.019 127.293 277.646 127.144C277.273 126.995 276.951 126.775 276.68 126.486C276.409 126.187 276.199 125.823 276.05 125.394C275.91 124.965 275.84 124.47 275.84 123.91C275.84 122.986 275.957 122.137 276.19 121.362C276.433 120.578 276.764 119.897 277.184 119.318C277.604 118.739 278.099 118.273 278.668 117.918C279.247 117.554 279.872 117.325 280.544 117.232L280.782 118.128C280.259 118.221 279.783 118.399 279.354 118.66C278.925 118.921 278.547 119.243 278.22 119.626C277.903 120.009 277.641 120.438 277.436 120.914C277.231 121.39 277.091 121.88 277.016 122.384C277.165 122.132 277.417 121.903 277.772 121.698C278.127 121.483 278.561 121.376 279.074 121.376C279.951 121.376 280.637 121.628 281.132 122.132C281.636 122.636 281.888 123.341 281.888 124.246ZM280.726 124.358C280.726 123.695 280.572 123.196 280.264 122.86C279.956 122.524 279.48 122.356 278.836 122.356C278.379 122.356 277.982 122.468 277.646 122.692C277.319 122.916 277.091 123.168 276.96 123.448C276.941 123.579 276.932 123.686 276.932 123.77C276.932 123.854 276.932 123.947 276.932 124.05C276.932 124.339 276.969 124.624 277.044 124.904C277.128 125.184 277.254 125.436 277.422 125.66C277.59 125.875 277.795 126.052 278.038 126.192C278.29 126.323 278.584 126.388 278.92 126.388C279.191 126.388 279.433 126.337 279.648 126.234C279.872 126.131 280.063 125.991 280.222 125.814C280.381 125.637 280.502 125.422 280.586 125.17C280.679 124.918 280.726 124.647 280.726 124.358Z" fill="#393939"/>
<path d="M272.512 172.364H274.472V165.588L274.612 164.762L274.052 165.42L272.512 166.526L271.98 165.812L275.06 163.432H275.564V172.364H277.482V173.4H272.512V172.364ZM281.905 172.588C282.222 172.588 282.516 172.541 282.787 172.448C283.058 172.355 283.291 172.219 283.487 172.042C283.683 171.855 283.837 171.636 283.949 171.384C284.061 171.132 284.117 170.857 284.117 170.558C284.117 169.905 283.921 169.419 283.529 169.102C283.146 168.785 282.614 168.626 281.933 168.626H280.897V168.22L282.913 165.112L283.557 164.496L282.647 164.636H279.875V163.6H284.873V164.006L282.647 167.352L282.157 167.758V167.786L282.633 167.688C283.006 167.697 283.352 167.767 283.669 167.898C283.986 168.019 284.262 168.201 284.495 168.444C284.728 168.677 284.91 168.962 285.041 169.298C285.172 169.625 285.237 169.998 285.237 170.418C285.237 170.922 285.148 171.37 284.971 171.762C284.794 172.154 284.551 172.485 284.243 172.756C283.944 173.017 283.59 173.218 283.179 173.358C282.768 173.498 282.334 173.568 281.877 173.568C281.457 173.568 281.079 173.535 280.743 173.47C280.407 173.405 280.113 173.321 279.861 173.218L280.155 172.224C280.37 172.327 280.622 172.415 280.911 172.49C281.21 172.555 281.541 172.588 281.905 172.588Z" fill="#393939"/>
<path d="M277.244 212.026C277.244 212.521 277.151 213.029 276.964 213.552C276.787 214.065 276.549 214.583 276.25 215.106C275.961 215.629 275.634 216.142 275.27 216.646C274.906 217.141 274.542 217.612 274.178 218.06L273.492 218.662V218.718L274.388 218.564H277.44V219.6H271.868V219.194C272.073 218.979 272.321 218.713 272.61 218.396C272.899 218.079 273.198 217.729 273.506 217.346C273.823 216.954 274.131 216.543 274.43 216.114C274.738 215.675 275.013 215.232 275.256 214.784C275.508 214.336 275.709 213.893 275.858 213.454C276.007 213.015 276.082 212.6 276.082 212.208C276.082 211.751 275.951 211.373 275.69 211.074C275.429 210.766 275.032 210.612 274.5 210.612C274.145 210.612 273.8 210.687 273.464 210.836C273.128 210.976 272.839 211.139 272.596 211.326L272.134 210.528C272.461 210.248 272.848 210.029 273.296 209.87C273.744 209.711 274.225 209.632 274.738 209.632C275.139 209.632 275.494 209.693 275.802 209.814C276.11 209.926 276.371 210.089 276.586 210.304C276.801 210.519 276.964 210.775 277.076 211.074C277.188 211.363 277.244 211.681 277.244 212.026ZM279.231 214.7C279.231 213.02 279.502 211.755 280.043 210.906C280.594 210.057 281.392 209.632 282.437 209.632C283.566 209.632 284.383 210.052 284.887 210.892C285.4 211.723 285.657 212.992 285.657 214.7C285.657 216.38 285.382 217.645 284.831 218.494C284.29 219.343 283.492 219.768 282.437 219.768C281.326 219.768 280.514 219.325 280.001 218.438C279.488 217.551 279.231 216.305 279.231 214.7ZM280.393 214.7C280.393 215.307 280.43 215.862 280.505 216.366C280.589 216.861 280.715 217.29 280.883 217.654C281.051 218.009 281.261 218.289 281.513 218.494C281.774 218.69 282.082 218.788 282.437 218.788C283.146 218.788 283.664 218.461 283.991 217.808C284.327 217.145 284.495 216.109 284.495 214.7C284.495 214.103 284.458 213.552 284.383 213.048C284.318 212.544 284.201 212.11 284.033 211.746C283.874 211.382 283.664 211.102 283.403 210.906C283.142 210.71 282.82 210.612 282.437 210.612C281.737 210.612 281.219 210.943 280.883 211.606C280.556 212.269 280.393 213.3 280.393 214.7Z" fill="#393939"/>
<path d="M277.244 258.226C277.244 258.721 277.151 259.229 276.964 259.752C276.787 260.265 276.549 260.783 276.25 261.306C275.961 261.829 275.634 262.342 275.27 262.846C274.906 263.341 274.542 263.812 274.178 264.26L273.492 264.862V264.918L274.388 264.764H277.44V265.8H271.868V265.394C272.073 265.179 272.321 264.913 272.61 264.596C272.899 264.279 273.198 263.929 273.506 263.546C273.823 263.154 274.131 262.743 274.43 262.314C274.738 261.875 275.013 261.432 275.256 260.984C275.508 260.536 275.709 260.093 275.858 259.654C276.007 259.215 276.082 258.8 276.082 258.408C276.082 257.951 275.951 257.573 275.69 257.274C275.429 256.966 275.032 256.812 274.5 256.812C274.145 256.812 273.8 256.887 273.464 257.036C273.128 257.176 272.839 257.339 272.596 257.526L272.134 256.728C272.461 256.448 272.848 256.229 273.296 256.07C273.744 255.911 274.225 255.832 274.738 255.832C275.139 255.832 275.494 255.893 275.802 256.014C276.11 256.126 276.371 256.289 276.586 256.504C276.801 256.719 276.964 256.975 277.076 257.274C277.188 257.563 277.244 257.881 277.244 258.226ZM280.169 265.8L283.683 257.596L284.299 256.91L283.473 257.036H279.483V256H285.335V256.378L281.303 265.8H280.169Z" fill="#393939"/>
<path opacity="0.5" d="M278.276 311.188C278.593 311.188 278.887 311.141 279.158 311.048C279.429 310.955 279.662 310.819 279.858 310.642C280.054 310.455 280.208 310.236 280.32 309.984C280.432 309.732 280.488 309.457 280.488 309.158C280.488 308.505 280.292 308.019 279.9 307.702C279.517 307.385 278.985 307.226 278.304 307.226H277.268V306.82L279.284 303.712L279.928 303.096L279.018 303.236H276.246V302.2H281.244V302.606L279.018 305.952L278.528 306.358V306.386L279.004 306.288C279.377 306.297 279.723 306.367 280.04 306.498C280.357 306.619 280.633 306.801 280.866 307.044C281.099 307.277 281.281 307.562 281.412 307.898C281.543 308.225 281.608 308.598 281.608 309.018C281.608 309.522 281.519 309.97 281.342 310.362C281.165 310.754 280.922 311.085 280.614 311.356C280.315 311.617 279.961 311.818 279.55 311.958C279.139 312.098 278.705 312.168 278.248 312.168C277.828 312.168 277.45 312.135 277.114 312.07C276.778 312.005 276.484 311.921 276.232 311.818L276.526 310.824C276.741 310.927 276.993 311.015 277.282 311.09C277.581 311.155 277.912 311.188 278.276 311.188Z" fill="#393939"/>
</g>
<g clip-path="url(#clip8_2715_2347)">
<path opacity="0.5" d="M319.614 78.508C319.614 78.116 319.497 77.7987 319.264 77.556C319.031 77.304 318.737 77.0847 318.382 76.898C318.037 76.702 317.659 76.52 317.248 76.352C316.837 76.184 316.455 75.9833 316.1 75.75C315.755 75.5073 315.465 75.2133 315.232 74.868C314.999 74.5133 314.882 74.0653 314.882 73.524C314.882 72.7587 315.148 72.152 315.68 71.704C316.212 71.256 316.968 71.032 317.948 71.032C318.517 71.032 319.035 71.074 319.502 71.158C319.969 71.242 320.333 71.3493 320.594 71.48L320.244 72.502C320.029 72.3993 319.712 72.3013 319.292 72.208C318.881 72.1147 318.415 72.068 317.892 72.068C317.276 72.068 316.814 72.208 316.506 72.488C316.198 72.7587 316.044 73.0807 316.044 73.454C316.044 73.818 316.161 74.1213 316.394 74.364C316.627 74.6067 316.917 74.826 317.262 75.022C317.617 75.2087 317.999 75.3953 318.41 75.582C318.821 75.7687 319.199 75.988 319.544 76.24C319.899 76.4827 320.193 76.7767 320.426 77.122C320.659 77.4673 320.776 77.8967 320.776 78.41C320.776 78.83 320.701 79.208 320.552 79.544C320.403 79.88 320.183 80.1693 319.894 80.412C319.605 80.6547 319.255 80.8413 318.844 80.972C318.433 81.1027 317.967 81.168 317.444 81.168C316.744 81.168 316.165 81.112 315.708 81C315.251 80.8973 314.896 80.7807 314.644 80.65L315.036 79.6C315.251 79.7213 315.568 79.8427 315.988 79.964C316.408 80.076 316.879 80.132 317.402 80.132C317.71 80.132 317.999 80.104 318.27 80.048C318.541 79.9827 318.774 79.8847 318.97 79.754C319.166 79.614 319.32 79.4413 319.432 79.236C319.553 79.0307 319.614 78.788 319.614 78.508ZM328.256 71.2H329.376V77.738C329.376 78.326 329.296 78.8347 329.138 79.264C328.988 79.6933 328.769 80.048 328.48 80.328C328.2 80.5987 327.859 80.7993 327.458 80.93C327.056 81.0607 326.613 81.126 326.128 81.126C324.97 81.126 324.098 80.8647 323.51 80.342C322.922 79.8193 322.628 79.026 322.628 77.962V71.2H323.79V77.416C323.79 77.9107 323.836 78.3307 323.93 78.676C324.032 79.012 324.182 79.2873 324.378 79.502C324.574 79.7073 324.816 79.8567 325.106 79.95C325.404 80.0433 325.75 80.09 326.142 80.09C326.898 80.09 327.439 79.8847 327.766 79.474C328.092 79.054 328.256 78.368 328.256 77.416V71.2ZM333.524 74.588L332.768 73.174H332.712L332.852 74.588V81H331.76V71.046H332.376L337.066 77.584L337.794 78.928H337.864L337.71 77.584V71.2H338.802V81.154H338.186L333.524 74.588Z" fill="#393939"/>
<path d="M324.54 127.2L328.054 118.996L328.67 118.31L327.844 118.436H323.854V117.4H329.706V117.778L325.674 127.2H324.54Z" fill="#393939"/>
<path d="M320.512 172.364H322.472V165.588L322.612 164.762L322.052 165.42L320.512 166.526L319.98 165.812L323.06 163.432H323.564V172.364H325.482V173.4H320.512V172.364ZM333.965 170.39H332.313V173.4H331.221V170.39H326.909V169.928L331.557 163.446H332.313V169.41H333.965V170.39ZM331.221 166.358L331.361 165.21H331.319L330.829 166.162L328.855 168.836L328.183 169.522L329.163 169.41H331.221V166.358Z" fill="#393939"/>
<path d="M325.244 212.026C325.244 212.521 325.151 213.029 324.964 213.552C324.787 214.065 324.549 214.583 324.25 215.106C323.961 215.629 323.634 216.142 323.27 216.646C322.906 217.141 322.542 217.612 322.178 218.06L321.492 218.662V218.718L322.388 218.564H325.44V219.6H319.868V219.194C320.073 218.979 320.321 218.713 320.61 218.396C320.899 218.079 321.198 217.729 321.506 217.346C321.823 216.954 322.131 216.543 322.43 216.114C322.738 215.675 323.013 215.232 323.256 214.784C323.508 214.336 323.709 213.893 323.858 213.454C324.007 213.015 324.082 212.6 324.082 212.208C324.082 211.751 323.951 211.373 323.69 211.074C323.429 210.766 323.032 210.612 322.5 210.612C322.145 210.612 321.8 210.687 321.464 210.836C321.128 210.976 320.839 211.139 320.596 211.326L320.134 210.528C320.461 210.248 320.848 210.029 321.296 209.87C321.744 209.711 322.225 209.632 322.738 209.632C323.139 209.632 323.494 209.693 323.802 209.814C324.11 209.926 324.371 210.089 324.586 210.304C324.801 210.519 324.964 210.775 325.076 211.074C325.188 211.363 325.244 211.681 325.244 212.026ZM328.141 218.564H330.101V211.788L330.241 210.962L329.681 211.62L328.141 212.726L327.609 212.012L330.689 209.632H331.193V218.564H333.111V219.6H328.141V218.564Z" fill="#393939"/>
<path d="M325.244 258.226C325.244 258.721 325.151 259.229 324.964 259.752C324.787 260.265 324.549 260.783 324.25 261.306C323.961 261.829 323.634 262.342 323.27 262.846C322.906 263.341 322.542 263.812 322.178 264.26L321.492 264.862V264.918L322.388 264.764H325.44V265.8H319.868V265.394C320.073 265.179 320.321 264.913 320.61 264.596C320.899 264.279 321.198 263.929 321.506 263.546C321.823 263.154 322.131 262.743 322.43 262.314C322.738 261.875 323.013 261.432 323.256 260.984C323.508 260.536 323.709 260.093 323.858 259.654C324.007 259.215 324.082 258.8 324.082 258.408C324.082 257.951 323.951 257.573 323.69 257.274C323.429 256.966 323.032 256.812 322.5 256.812C322.145 256.812 321.8 256.887 321.464 257.036C321.128 257.176 320.839 257.339 320.596 257.526L320.134 256.728C320.461 256.448 320.848 256.229 321.296 256.07C321.744 255.911 322.225 255.832 322.738 255.832C323.139 255.832 323.494 255.893 323.802 256.014C324.11 256.126 324.371 256.289 324.586 256.504C324.801 256.719 324.964 256.975 325.076 257.274C325.188 257.563 325.244 257.881 325.244 258.226ZM327.581 263.462C327.581 262.874 327.735 262.365 328.043 261.936C328.351 261.497 328.832 261.101 329.485 260.746C329.252 260.606 329.032 260.461 328.827 260.312C328.631 260.153 328.454 259.976 328.295 259.78C328.146 259.584 328.024 259.365 327.931 259.122C327.847 258.879 327.805 258.599 327.805 258.282C327.805 257.918 327.866 257.587 327.987 257.288C328.118 256.989 328.3 256.733 328.533 256.518C328.776 256.303 329.06 256.135 329.387 256.014C329.723 255.893 330.101 255.832 330.521 255.832C330.913 255.832 331.268 255.888 331.585 256C331.902 256.112 332.168 256.266 332.383 256.462C332.607 256.658 332.78 256.891 332.901 257.162C333.022 257.433 333.083 257.731 333.083 258.058C333.083 258.59 332.962 259.061 332.719 259.472C332.476 259.873 332.075 260.27 331.515 260.662C331.758 260.802 331.986 260.956 332.201 261.124C332.425 261.292 332.616 261.479 332.775 261.684C332.943 261.889 333.074 262.123 333.167 262.384C333.26 262.636 333.307 262.925 333.307 263.252C333.307 263.653 333.242 264.022 333.111 264.358C332.98 264.685 332.789 264.969 332.537 265.212C332.285 265.445 331.977 265.632 331.613 265.772C331.249 265.903 330.834 265.968 330.367 265.968C329.919 265.968 329.522 265.903 329.177 265.772C328.832 265.641 328.538 265.464 328.295 265.24C328.062 265.016 327.884 264.755 327.763 264.456C327.642 264.148 327.581 263.817 327.581 263.462ZM332.215 263.322C332.215 263.042 332.159 262.799 332.047 262.594C331.935 262.379 331.786 262.188 331.599 262.02C331.422 261.843 331.216 261.684 330.983 261.544C330.75 261.404 330.507 261.269 330.255 261.138C329.686 261.455 329.28 261.81 329.037 262.202C328.794 262.594 328.673 262.967 328.673 263.322C328.673 263.546 328.71 263.761 328.785 263.966C328.86 264.171 328.972 264.349 329.121 264.498C329.27 264.647 329.452 264.769 329.667 264.862C329.891 264.946 330.148 264.988 330.437 264.988C330.67 264.988 330.894 264.955 331.109 264.89C331.324 264.815 331.51 264.713 331.669 264.582C331.837 264.442 331.968 264.269 332.061 264.064C332.164 263.849 332.215 263.602 332.215 263.322ZM328.897 258.254C328.897 258.515 328.948 258.749 329.051 258.954C329.154 259.15 329.289 259.327 329.457 259.486C329.634 259.645 329.835 259.794 330.059 259.934C330.283 260.065 330.516 260.191 330.759 260.312C331.179 259.985 331.487 259.663 331.683 259.346C331.888 259.029 331.991 258.679 331.991 258.296C331.991 257.82 331.842 257.456 331.543 257.204C331.254 256.943 330.904 256.812 330.493 256.812C330.241 256.812 330.017 256.854 329.821 256.938C329.625 257.022 329.457 257.129 329.317 257.26C329.177 257.391 329.07 257.545 328.995 257.722C328.93 257.89 328.897 258.067 328.897 258.254Z" fill="#393939"/>
<path opacity="0.5" d="M330.336 308.99H328.684V312H327.592V308.99H323.28V308.528L327.928 302.046H328.684V308.01H330.336V308.99ZM327.592 304.958L327.732 303.81H327.69L327.2 304.762L325.226 307.436L324.554 308.122L325.534 308.01H327.592V304.958Z" fill="#393939"/>
</g>
</g>
<defs>
<clipPath id="clip0_2715_2347">
<rect width="324" height="29" fill="white" transform="translate(16 16)"/>
</clipPath>
<clipPath id="clip1_2715_2347">
<rect width="324" height="252" fill="white" transform="translate(16 65)"/>
</clipPath>
<clipPath id="clip2_2715_2347">
<rect width="33" height="252" fill="white" transform="translate(16 65)"/>
</clipPath>
<clipPath id="clip3_2715_2347">
<rect width="25" height="252" fill="white" transform="translate(72.5 65)"/>
</clipPath>
<clipPath id="clip4_2715_2347">
<rect width="29" height="252" fill="white" transform="translate(121 65)"/>
</clipPath>
<clipPath id="clip5_2715_2347">
<rect width="27" height="252" fill="white" transform="translate(173.5 65)"/>
</clipPath>
<clipPath id="clip6_2715_2347">
<rect width="20" height="252" fill="white" transform="translate(224 65)"/>
</clipPath>
<clipPath id="clip7_2715_2347">
<rect width="23" height="252" fill="white" transform="translate(267.5 65)"/>
</clipPath>
<clipPath id="clip8_2715_2347">
<rect width="26" height="252" fill="white" transform="translate(314 65)"/>
</clipPath>
</defs>
</svg>
