<svg width="41" height="53" viewBox="0 0 41 53" fill="none" xmlns="http://www.w3.org/2000/svg">
<path d="M3.208 49.38H7.648L7.516 47.832H3.352L3.208 49.38ZM5.404 45.684L6.592 48.408L6.52 48.924L7.528 51H9.832L5.404 42.072L0.988 51H3.28L4.324 48.84L4.228 48.396L5.404 45.684ZM11.6242 46.824H13.1962C13.7802 46.824 14.2922 46.744 14.7322 46.584C15.1802 46.416 15.5322 46.176 15.7882 45.864C16.0522 45.552 16.1842 45.176 16.1842 44.736C16.1842 44.256 16.0522 43.86 15.7882 43.548C15.5322 43.228 15.1802 42.992 14.7322 42.84C14.2922 42.68 13.7802 42.6 13.1962 42.6H10.1122V51H13.4002C14.0642 51 14.6402 50.92 15.1282 50.76C15.6162 50.592 15.9922 50.336 16.2562 49.992C16.5282 49.648 16.6642 49.196 16.6642 48.636C16.6642 48.212 16.5682 47.852 16.3762 47.556C16.1922 47.252 15.9442 47.004 15.6322 46.812C15.3202 46.612 14.9722 46.468 14.5882 46.38C14.2042 46.292 13.8082 46.248 13.4002 46.248H11.6242V47.352H13.1722C13.3722 47.352 13.5522 47.372 13.7122 47.412C13.8802 47.444 14.0282 47.5 14.1562 47.58C14.2842 47.66 14.3842 47.764 14.4562 47.892C14.5282 48.02 14.5642 48.172 14.5642 48.348C14.5642 48.62 14.5002 48.836 14.3722 48.996C14.2522 49.148 14.0882 49.26 13.8802 49.332C13.6722 49.396 13.4362 49.428 13.1722 49.428H12.1402V44.172H12.9802C13.3322 44.172 13.6042 44.244 13.7962 44.388C13.9882 44.532 14.0842 44.748 14.0842 45.036C14.0842 45.228 14.0402 45.392 13.9522 45.528C13.8642 45.656 13.7362 45.756 13.5682 45.828C13.4082 45.9 13.2122 45.936 12.9802 45.936H11.6242V46.824ZM19.149 46.8C19.149 46.304 19.245 45.868 19.437 45.492C19.637 45.108 19.913 44.808 20.265 44.592C20.625 44.376 21.045 44.268 21.525 44.268C22.013 44.268 22.433 44.376 22.785 44.592C23.137 44.808 23.409 45.108 23.601 45.492C23.793 45.868 23.889 46.304 23.889 46.8C23.889 47.296 23.789 47.736 23.589 48.12C23.397 48.496 23.121 48.792 22.761 49.008C22.409 49.224 21.997 49.332 21.525 49.332C21.045 49.332 20.625 49.224 20.265 49.008C19.913 48.792 19.637 48.496 19.437 48.12C19.245 47.736 19.149 47.296 19.149 46.8ZM17.001 46.8C17.001 47.448 17.109 48.044 17.325 48.588C17.549 49.132 17.861 49.604 18.261 50.004C18.669 50.404 19.149 50.716 19.701 50.94C20.253 51.156 20.861 51.264 21.525 51.264C22.181 51.264 22.785 51.156 23.337 50.94C23.889 50.716 24.365 50.404 24.765 50.004C25.173 49.604 25.485 49.132 25.701 48.588C25.925 48.044 26.037 47.448 26.037 46.8C26.037 46.152 25.925 45.56 25.701 45.024C25.477 44.488 25.161 44.024 24.753 43.632C24.345 43.24 23.865 42.94 23.313 42.732C22.769 42.516 22.173 42.408 21.525 42.408C20.885 42.408 20.289 42.516 19.737 42.732C19.185 42.94 18.705 43.24 18.297 43.632C17.889 44.024 17.569 44.488 17.337 45.024C17.113 45.56 17.001 46.152 17.001 46.8ZM26.6764 42.6V48.24C26.6764 48.768 26.7604 49.228 26.9284 49.62C27.1044 50.012 27.3444 50.336 27.6484 50.592C27.9604 50.84 28.3204 51.028 28.7284 51.156C29.1364 51.284 29.5764 51.348 30.0484 51.348C30.5204 51.348 30.9604 51.284 31.3684 51.156C31.7844 51.028 32.1444 50.84 32.4484 50.592C32.7604 50.336 33.0004 50.012 33.1684 49.62C33.3444 49.228 33.4324 48.768 33.4324 48.24V42.6H31.4044V48.096C31.4044 48.52 31.2924 48.864 31.0684 49.128C30.8444 49.392 30.5044 49.524 30.0484 49.524C29.6004 49.524 29.2644 49.392 29.0404 49.128C28.8164 48.864 28.7044 48.52 28.7044 48.096V42.6H26.6764ZM33.7105 44.412H36.0145V51H38.0425V44.412H40.3585V42.6H33.7105V44.412Z" fill="#333"/>
<path d="M20.97 11.85C21.7432 11.85 22.37 11.2232 22.37 10.45C22.37 9.67685 21.7432 9.05005 20.97 9.05005C20.1968 9.05005 19.57 9.67685 19.57 10.45C19.57 11.2232 20.1968 11.85 20.97 11.85Z" fill="#333"/>
<path d="M24 25H22V14.1H19C18.7348 14.1 18.4804 14.2053 18.2929 14.3929C18.1054 14.5804 18 14.8348 18 15.1C18 15.3652 18.1054 15.6195 18.2929 15.8071C18.4804 15.9946 18.7348 16.1 19 16.1H20V25H18C17.7348 25 17.4804 25.1053 17.2929 25.2929C17.1054 25.4804 17 25.7348 17 26C17 26.2652 17.1054 26.5195 17.2929 26.7071C17.4804 26.8946 17.7348 27 18 27H24C24.2652 27 24.5196 26.8946 24.7071 26.7071C24.8946 26.5195 25 26.2652 25 26C25 25.7348 24.8946 25.4804 24.7071 25.2929C24.5196 25.1053 24.2652 25 24 25Z" fill="#333"/>
<path d="M21 34C17.8355 34 14.7421 33.0616 12.1109 31.3035C9.47969 29.5454 7.42893 27.0466 6.21793 24.1229C5.00692 21.1993 4.69007 17.9823 5.30744 14.8786C5.9248 11.7749 7.44865 8.92394 9.68629 6.6863C11.9239 4.44866 14.7749 2.92481 17.8786 2.30744C20.9823 1.69008 24.1993 2.00693 27.1229 3.21793C30.0466 4.42894 32.5454 6.4797 34.3035 9.11088C36.0616 11.7421 37 14.8355 37 18C37 22.2435 35.3143 26.3131 32.3137 29.3137C29.3131 32.3143 25.2435 34 21 34ZM21 4.00001C18.2311 4.00001 15.5243 4.82109 13.222 6.35943C10.9197 7.89777 9.12531 10.0843 8.06569 12.6424C7.00606 15.2006 6.72881 18.0155 7.26901 20.7313C7.8092 23.447 9.14257 25.9416 11.1005 27.8995C13.0584 29.8574 15.553 31.1908 18.2687 31.731C20.9845 32.2712 23.7994 31.9939 26.3576 30.9343C28.9157 29.8747 31.1022 28.0803 32.6406 25.778C34.1789 23.4757 35 20.7689 35 18C35 14.287 33.525 10.726 30.8995 8.10051C28.274 5.475 24.713 4.00001 21 4.00001Z" fill="#333"/>
</svg>
