<svg width="58" height="52" viewBox="0 0 58 52" fill="none" xmlns="http://www.w3.org/2000/svg">
<path d="M26 15C23.8 15 22 14.3 20.6 12.9C19.2 11.5 18.5 9.7 18.5 7.5C18.5 5.3 19.2 3.5 20.6 2.1C22 0.7 23.8 0 26 0C28.2 0 30 0.7 31.4 2.1C32.8 3.5 33.5 5.3 33.5 7.5C33.5 9.7 32.8 11.5 31.4 12.9C30 14.3 28.2 15 26 15ZM10 31.05V26.35C10 25.1833 10.2917 24.1333 10.875 23.2C11.4583 22.2667 12.3 21.55 13.4 21.05C15.8 19.9833 18.025 19.2167 20.075 18.75C22.125 18.2833 24.1 18.05 26 18.05H27.15C26.95 18.5167 26.8 18.975 26.7 19.425C26.6 19.875 26.5167 20.4167 26.45 21.05H26C24.0667 21.05 22.175 21.2583 20.325 21.675C18.475 22.0917 16.5667 22.7833 14.6 23.75C14.0667 24.0167 13.6667 24.3917 13.4 24.875C13.1333 25.3583 13 25.85 13 26.35V28.05H26.45C26.6167 28.65 26.8167 29.1917 27.05 29.675C27.2833 30.1583 27.5667 30.6167 27.9 31.05H10ZM39.35 33.25L38.85 29.95C38.2833 29.7833 37.7083 29.5417 37.125 29.225C36.5417 28.9083 36.05 28.55 35.65 28.15L32.9 28.75L31.65 26.65L34 24.45C33.9333 24.15 33.9 23.7333 33.9 23.2C33.9 22.6667 33.9333 22.25 34 21.95L31.65 19.75L32.9 17.65L35.65 18.25C36.05 17.85 36.5417 17.4917 37.125 17.175C37.7083 16.8583 38.2833 16.6167 38.85 16.45L39.35 13.15H42.05L42.55 16.45C43.1167 16.6167 43.6917 16.8583 44.275 17.175C44.8583 17.4917 45.35 17.85 45.75 18.25L48.5 17.65L49.75 19.75L47.4 21.95C47.4667 22.25 47.5 22.6667 47.5 23.2C47.5 23.7333 47.4667 24.15 47.4 24.45L49.75 26.65L48.5 28.75L45.75 28.15C45.35 28.55 44.8583 28.9083 44.275 29.225C43.6917 29.5417 43.1167 29.7833 42.55 29.95L42.05 33.25H39.35ZM40.7 27.2C41.9 27.2 42.8667 26.8333 43.6 26.1C44.3333 25.3667 44.7 24.4 44.7 23.2C44.7 22 44.3333 21.0333 43.6 20.3C42.8667 19.5667 41.9 19.2 40.7 19.2C39.5 19.2 38.5333 19.5667 37.8 20.3C37.0667 21.0333 36.7 22 36.7 23.2C36.7 24.4 37.0667 25.3667 37.8 26.1C38.5333 26.8333 39.5 27.2 40.7 27.2ZM26 12C27.3 12 28.375 11.575 29.225 10.725C30.075 9.875 30.5 8.8 30.5 7.5C30.5 6.2 30.075 5.125 29.225 4.275C28.375 3.425 27.3 3 26 3C24.7 3 23.625 3.425 22.775 4.275C21.925 5.125 21.5 6.2 21.5 7.5C21.5 8.8 21.925 9.875 22.775 10.725C23.625 11.575 24.7 12 26 12Z" fill="#333"/>
<path d="M3.208 48.38L3.352 46.832H7.516L7.648 48.38H3.208ZM5.404 44.684L4.228 47.396L4.324 47.84L3.28 50H0.988L5.404 41.072L9.832 50H7.528L6.52 47.924L6.592 47.408L5.404 44.684ZM11.4769 45.8C11.4769 46.312 11.5929 46.756 11.8249 47.132C12.0569 47.5 12.3609 47.78 12.7369 47.972C13.1209 48.164 13.5409 48.26 13.9969 48.26C14.3969 48.26 14.7489 48.208 15.0529 48.104C15.3569 48 15.6289 47.864 15.8689 47.696C16.1089 47.528 16.3209 47.348 16.5049 47.156V49.34C16.1689 49.604 15.8009 49.812 15.4009 49.964C15.0009 50.116 14.4929 50.192 13.8769 50.192C13.2049 50.192 12.5849 50.088 12.0169 49.88C11.4489 49.672 10.9609 49.372 10.5529 48.98C10.1449 48.588 9.82894 48.124 9.60494 47.588C9.38094 47.052 9.26894 46.456 9.26894 45.8C9.26894 45.144 9.38094 44.548 9.60494 44.012C9.82894 43.476 10.1449 43.012 10.5529 42.62C10.9609 42.228 11.4489 41.928 12.0169 41.72C12.5849 41.512 13.2049 41.408 13.8769 41.408C14.4929 41.408 15.0009 41.484 15.4009 41.636C15.8009 41.788 16.1689 41.996 16.5049 42.26V44.444C16.3209 44.252 16.1089 44.072 15.8689 43.904C15.6289 43.728 15.3569 43.592 15.0529 43.496C14.7489 43.392 14.3969 43.34 13.9969 43.34C13.5409 43.34 13.1209 43.436 12.7369 43.628C12.3609 43.82 12.0569 44.1 11.8249 44.468C11.5929 44.836 11.4769 45.28 11.4769 45.8ZM19.291 45.8C19.291 46.312 19.407 46.756 19.639 47.132C19.871 47.5 20.175 47.78 20.551 47.972C20.935 48.164 21.355 48.26 21.811 48.26C22.211 48.26 22.563 48.208 22.867 48.104C23.171 48 23.443 47.864 23.683 47.696C23.923 47.528 24.135 47.348 24.319 47.156V49.34C23.983 49.604 23.615 49.812 23.215 49.964C22.815 50.116 22.307 50.192 21.691 50.192C21.019 50.192 20.399 50.088 19.831 49.88C19.263 49.672 18.775 49.372 18.367 48.98C17.959 48.588 17.643 48.124 17.419 47.588C17.195 47.052 17.083 46.456 17.083 45.8C17.083 45.144 17.195 44.548 17.419 44.012C17.643 43.476 17.959 43.012 18.367 42.62C18.775 42.228 19.263 41.928 19.831 41.72C20.399 41.512 21.019 41.408 21.691 41.408C22.307 41.408 22.815 41.484 23.215 41.636C23.615 41.788 23.983 41.996 24.319 42.26V44.444C24.135 44.252 23.923 44.072 23.683 43.904C23.443 43.728 23.171 43.592 22.867 43.496C22.563 43.392 22.211 43.34 21.811 43.34C21.355 43.34 20.935 43.436 20.551 43.628C20.175 43.82 19.871 44.1 19.639 44.468C19.407 44.836 19.291 45.28 19.291 45.8ZM27.0451 45.8C27.0451 46.296 27.1411 46.736 27.3331 47.12C27.5331 47.496 27.8091 47.792 28.1611 48.008C28.5211 48.224 28.9411 48.332 29.4211 48.332C29.8931 48.332 30.3051 48.224 30.6571 48.008C31.0171 47.792 31.2931 47.496 31.4851 47.12C31.6851 46.736 31.7851 46.296 31.7851 45.8C31.7851 45.304 31.6891 44.868 31.4971 44.492C31.3051 44.108 31.0331 43.808 30.6811 43.592C30.3291 43.376 29.9091 43.268 29.4211 43.268C28.9411 43.268 28.5211 43.376 28.1611 43.592C27.8091 43.808 27.5331 44.108 27.3331 44.492C27.1411 44.868 27.0451 45.304 27.0451 45.8ZM24.8971 45.8C24.8971 45.152 25.0091 44.56 25.2331 44.024C25.4651 43.488 25.7851 43.024 26.1931 42.632C26.6011 42.24 27.0811 41.94 27.6331 41.732C28.1851 41.516 28.7811 41.408 29.4211 41.408C30.0691 41.408 30.6651 41.516 31.2091 41.732C31.7611 41.94 32.2411 42.24 32.6491 42.632C33.0571 43.024 33.3731 43.488 33.5971 44.024C33.8211 44.56 33.9331 45.152 33.9331 45.8C33.9331 46.448 33.8211 47.044 33.5971 47.588C33.3811 48.132 33.0691 48.604 32.6611 49.004C32.2611 49.404 31.7851 49.716 31.2331 49.94C30.6811 50.156 30.0771 50.264 29.4211 50.264C28.7571 50.264 28.1491 50.156 27.5971 49.94C27.0451 49.716 26.5651 49.404 26.1571 49.004C25.7571 48.604 25.4451 48.132 25.2211 47.588C25.0051 47.044 24.8971 46.448 24.8971 45.8ZM34.5725 41.6H36.6005V47.096C36.6005 47.52 36.7125 47.864 36.9365 48.128C37.1605 48.392 37.4965 48.524 37.9445 48.524C38.4005 48.524 38.7405 48.392 38.9645 48.128C39.1885 47.864 39.3005 47.52 39.3005 47.096V41.6H41.3285V47.24C41.3285 47.768 41.2405 48.228 41.0645 48.62C40.8965 49.012 40.6565 49.336 40.3445 49.592C40.0405 49.84 39.6805 50.028 39.2645 50.156C38.8565 50.284 38.4165 50.348 37.9445 50.348C37.4725 50.348 37.0325 50.284 36.6245 50.156C36.2165 50.028 35.8565 49.84 35.5445 49.592C35.2405 49.336 35.0005 49.012 34.8245 48.62C34.6565 48.228 34.5725 47.768 34.5725 47.24V41.6ZM48.2426 41.6H50.1986V50.42L44.3906 45.272V50H42.4466V41.18L48.2426 46.328V41.6ZM50.5339 43.412V41.6H57.1819V43.412H54.8659V50H52.8379V43.412H50.5339Z" fill="#333"/>
</svg>
