<svg width="41" height="51" viewBox="0 0 41 51" fill="none" xmlns="http://www.w3.org/2000/svg">
<path d="M17 15C14.8 15 13 14.3 11.6 12.9C10.2 11.5 9.5 9.7 9.5 7.5C9.5 5.3 10.2 3.5 11.6 2.1C13 0.7 14.8 0 17 0C19.2 0 21 0.7 22.4 2.1C23.8 3.5 24.5 5.3 24.5 7.5C24.5 9.7 23.8 11.5 22.4 12.9C21 14.3 19.2 15 17 15ZM1 31.05V26.35C1 25.1833 1.29167 24.1333 1.875 23.2C2.45833 22.2667 3.3 21.55 4.4 21.05C6.8 19.9833 9.025 19.2167 11.075 18.75C13.125 18.2833 15.1 18.05 17 18.05H18.15C17.95 18.5167 17.8 18.975 17.7 19.425C17.6 19.875 17.5167 20.4167 17.45 21.05H17C15.0667 21.05 13.175 21.2583 11.325 21.675C9.475 22.0917 7.56667 22.7833 5.6 23.75C5.06667 24.0167 4.66667 24.3917 4.4 24.875C4.13333 25.3583 4 25.85 4 26.35V28.05H17.45C17.6167 28.65 17.8167 29.1917 18.05 29.675C18.2833 30.1583 18.5667 30.6167 18.9 31.05H1ZM30.35 33.25L29.85 29.95C29.2833 29.7833 28.7083 29.5417 28.125 29.225C27.5417 28.9083 27.05 28.55 26.65 28.15L23.9 28.75L22.65 26.65L25 24.45C24.9333 24.15 24.9 23.7333 24.9 23.2C24.9 22.6667 24.9333 22.25 25 21.95L22.65 19.75L23.9 17.65L26.65 18.25C27.05 17.85 27.5417 17.4917 28.125 17.175C28.7083 16.8583 29.2833 16.6167 29.85 16.45L30.35 13.15H33.05L33.55 16.45C34.1167 16.6167 34.6917 16.8583 35.275 17.175C35.8583 17.4917 36.35 17.85 36.75 18.25L39.5 17.65L40.75 19.75L38.4 21.95C38.4667 22.25 38.5 22.6667 38.5 23.2C38.5 23.7333 38.4667 24.15 38.4 24.45L40.75 26.65L39.5 28.75L36.75 28.15C36.35 28.55 35.8583 28.9083 35.275 29.225C34.6917 29.5417 34.1167 29.7833 33.55 29.95L33.05 33.25H30.35ZM31.7 27.2C32.9 27.2 33.8667 26.8333 34.6 26.1C35.3333 25.3667 35.7 24.4 35.7 23.2C35.7 22 35.3333 21.0333 34.6 20.3C33.8667 19.5667 32.9 19.2 31.7 19.2C30.5 19.2 29.5333 19.5667 28.8 20.3C28.0667 21.0333 27.7 22 27.7 23.2C27.7 24.4 28.0667 25.3667 28.8 26.1C29.5333 26.8333 30.5 27.2 31.7 27.2ZM17 12C18.3 12 19.375 11.575 20.225 10.725C21.075 9.875 21.5 8.8 21.5 7.5C21.5 6.2 21.075 5.125 20.225 4.275C19.375 3.425 18.3 3 17 3C15.7 3 14.625 3.425 13.775 4.275C12.925 5.125 12.5 6.2 12.5 7.5C12.5 8.8 12.925 9.875 13.775 10.725C14.625 11.575 15.7 12 17 12Z" fill="#5F6068"/>
<path d="M3.208 47.38L3.352 45.832H7.516L7.648 47.38H3.208ZM5.404 43.684L4.228 46.396L4.324 46.84L3.28 49H0.988L5.404 40.072L9.832 49H7.528L6.52 46.924L6.592 46.408L5.404 43.684ZM10.1122 40.6H12.2002V49H10.1122V40.6ZM13.1122 49H11.4562V47.2H13.0402C13.3602 47.2 13.6682 47.16 13.9642 47.08C14.2682 47 14.5322 46.868 14.7562 46.684C14.9882 46.5 15.1722 46.256 15.3082 45.952C15.4442 45.64 15.5122 45.256 15.5122 44.8C15.5122 44.344 15.4442 43.964 15.3082 43.66C15.1722 43.348 14.9882 43.1 14.7562 42.916C14.5322 42.732 14.2682 42.6 13.9642 42.52C13.6682 42.44 13.3602 42.4 13.0402 42.4H11.4562V40.6H13.1122C14.0322 40.6 14.8282 40.772 15.5002 41.116C16.1722 41.46 16.6922 41.944 17.0602 42.568C17.4282 43.192 17.6122 43.936 17.6122 44.8C17.6122 45.656 17.4282 46.4 17.0602 47.032C16.6922 47.656 16.1722 48.14 15.5002 48.484C14.8282 48.828 14.0322 49 13.1122 49ZM20.473 44.716L19.969 49H17.833L19.189 40.18L22.765 45.304L26.353 40.18L27.709 49H25.573L25.069 44.716L22.765 48.22L20.473 44.716ZM28.4005 40.6H30.4645V49H28.4005V40.6ZM37.4403 40.6H39.3963V49.42L33.5883 44.272V49H31.6443V40.18L37.4403 45.328V40.6Z" fill="#5F6068"/>
</svg>
