<svg width="61" height="50" viewBox="0 0 61 50" fill="none" xmlns="http://www.w3.org/2000/svg">
<path d="M2.616 43.8C2.616 43.28 2.732 42.836 2.964 42.468C3.196 42.1 3.5 41.82 3.876 41.628C4.26 41.436 4.68 41.34 5.136 41.34C5.536 41.34 5.888 41.392 6.192 41.496C6.496 41.592 6.768 41.728 7.008 41.904C7.248 42.072 7.46 42.252 7.644 42.444V40.26C7.308 39.996 6.94 39.788 6.54 39.636C6.14 39.484 5.632 39.408 5.016 39.408C4.344 39.408 3.724 39.512 3.156 39.72C2.588 39.928 2.1 40.228 1.692 40.62C1.284 41.012 0.968 41.476 0.744 42.012C0.52 42.548 0.408 43.144 0.408 43.8C0.408 44.456 0.52 45.052 0.744 45.588C0.968 46.124 1.284 46.588 1.692 46.98C2.1 47.372 2.588 47.672 3.156 47.88C3.724 48.088 4.344 48.192 5.016 48.192C5.632 48.192 6.14 48.116 6.54 47.964C6.94 47.812 7.308 47.604 7.644 47.34V45.156C7.46 45.348 7.248 45.528 7.008 45.696C6.768 45.864 6.496 46 6.192 46.104C5.888 46.208 5.536 46.26 5.136 46.26C4.68 46.26 4.26 46.164 3.876 45.972C3.5 45.78 3.196 45.5 2.964 45.132C2.732 44.756 2.616 44.312 2.616 43.8ZM9.84628 46.38H14.2863L14.1543 44.832H9.99028L9.84628 46.38ZM12.0423 42.684L13.2303 45.408L13.1583 45.924L14.1663 48H16.4703L12.0423 39.072L7.62628 48H9.91828L10.9623 45.84L10.8663 45.396L12.0423 42.684ZM16.7505 39.6V48H22.1505V46.26H18.7785V39.6H16.7505ZM23.8343 48H28.0703V46.332H23.8343V48ZM23.8343 41.268H28.0703V39.6H23.8343V41.268ZM23.8343 44.4H27.8303V42.768H23.8343V44.4ZM22.4903 39.6V48H24.4343V39.6H22.4903ZM34.9168 39.6V44.328L29.1208 39.18V48H31.0648V43.272L36.8728 48.42V39.6H34.9168ZM38.0482 39.6V48H40.1362V39.6H38.0482ZM41.0482 48C41.9682 48 42.7642 47.828 43.4362 47.484C44.1082 47.14 44.6282 46.656 44.9962 46.032C45.3642 45.4 45.5482 44.656 45.5482 43.8C45.5482 42.936 45.3642 42.192 44.9962 41.568C44.6282 40.944 44.1082 40.46 43.4362 40.116C42.7642 39.772 41.9682 39.6 41.0482 39.6H39.3922V41.4H40.9762C41.2962 41.4 41.6042 41.44 41.9002 41.52C42.2042 41.6 42.4682 41.732 42.6922 41.916C42.9242 42.1 43.1082 42.348 43.2442 42.66C43.3802 42.964 43.4482 43.344 43.4482 43.8C43.4482 44.256 43.3802 44.64 43.2442 44.952C43.1082 45.256 42.9242 45.5 42.6922 45.684C42.4682 45.868 42.2042 46 41.9002 46.08C41.6042 46.16 41.2962 46.2 40.9762 46.2H39.3922V48H41.0482ZM47.2057 46.38H51.6457L51.5137 44.832H47.3497L47.2057 46.38ZM49.4017 42.684L50.5897 45.408L50.5177 45.924L51.5257 48H53.8297L49.4017 39.072L44.9857 48H47.2777L48.3217 45.84L48.2257 45.396L49.4017 42.684ZM56.2099 44.196L58.5619 48H60.9379L58.3099 44.196H56.2099ZM54.1099 39.6V48H56.1379V39.6H54.1099ZM55.3819 41.316H57.0259C57.2979 41.316 57.5299 41.36 57.7219 41.448C57.9219 41.536 58.0739 41.664 58.1779 41.832C58.2819 41.992 58.3339 42.188 58.3339 42.42C58.3339 42.652 58.2819 42.852 58.1779 43.02C58.0739 43.18 57.9219 43.304 57.7219 43.392C57.5299 43.472 57.2979 43.512 57.0259 43.512H55.3819V45.084H57.1699C57.8899 45.084 58.4899 44.968 58.9699 44.736C59.4499 44.504 59.8139 44.184 60.0619 43.776C60.3099 43.36 60.4339 42.884 60.4339 42.348C60.4339 41.804 60.3099 41.328 60.0619 40.92C59.8139 40.504 59.4499 40.18 58.9699 39.948C58.4899 39.716 57.8899 39.6 57.1699 39.6H55.3819V41.316Z" fill="#000000"/>
<path d="M47.1636 4.07273H40.7636V0H38.4364V4.07273H24.4727V0H22.1455V4.07273H15.7455C15.2827 4.07327 14.839 4.25733 14.5118 4.58455C14.1846 4.91177 14.0005 5.35542 14 5.81818V30.2545C14.0005 30.7173 14.1846 31.161 14.5118 31.4882C14.839 31.8154 15.2827 31.9995 15.7455 32H47.1636C47.6264 31.9995 48.07 31.8154 48.3973 31.4882C48.7245 31.161 48.9086 30.7173 48.9091 30.2545V5.81818C48.9086 5.35542 48.7245 4.91177 48.3973 4.58455C48.07 4.25733 47.6264 4.07327 47.1636 4.07273ZM46.5818 29.6727H16.3273V6.4H22.1455V9.30909H24.4727V6.4H38.4364V9.30909H40.7636V6.4H46.5818V29.6727Z" fill="#000000"/>
<path d="M23.3091 13.3818H20.9818V15.7091H23.3091V13.3818Z" fill="#000000"/>
<path d="M29.7091 13.3818H27.3818V15.7091H29.7091V13.3818Z" fill="#000000"/>
<path d="M35.5273 13.3818H33.2V15.7091H35.5273V13.3818Z" fill="#000000"/>
<path d="M41.9273 13.3818H39.6V15.7091H41.9273V13.3818Z" fill="#000000"/>
<path d="M23.3091 18.6182H20.9818V20.9454H23.3091V18.6182Z" fill="#000000"/>
<path d="M29.7091 18.6182H27.3818V20.9454H29.7091V18.6182Z" fill="#000000"/>
<path d="M35.5273 18.6182H33.2V20.9454H35.5273V18.6182Z" fill="#000000"/>
<path d="M41.9273 18.6182H39.6V20.9454H41.9273V18.6182Z" fill="#000000"/>
<path d="M23.3091 23.8545H20.9818V26.1818H23.3091V23.8545Z" fill="#000000"/>
<path d="M29.7091 23.8545H27.3818V26.1818H29.7091V23.8545Z" fill="#000000"/>
<path d="M35.5273 23.8545H33.2V26.1818H35.5273V23.8545Z" fill="#000000"/>
<path d="M41.9273 23.8545H39.6V26.1818H41.9273V23.8545Z" fill="#000000"/>
</svg>
