<svg width="19" height="19" viewBox="0 0 19 19" fill="none" xmlns="http://www.w3.org/2000/svg">
<path d="M16.3954 15.2713L13.7038 12.5875C14.5722 11.4811 15.0434 10.1149 15.0417 8.70834C15.0417 7.45572 14.6702 6.23124 13.9743 5.18972C13.2784 4.14821 12.2893 3.33645 11.132 2.8571C9.97473 2.37774 8.70131 2.25232 7.47276 2.4967C6.24422 2.74107 5.11573 3.34426 4.22999 4.22999C3.34426 5.11573 2.74107 6.24422 2.4967 7.47276C2.25232 8.70131 2.37774 9.97473 2.8571 11.132C3.33645 12.2893 4.14821 13.2784 5.18972 13.9743C6.23124 14.6702 7.45572 15.0417 8.70834 15.0417C10.1149 15.0434 11.4811 14.5722 12.5875 13.7038L15.2713 16.3954C15.3448 16.4696 15.4324 16.5285 15.5289 16.5687C15.6254 16.6089 15.7288 16.6296 15.8333 16.6296C15.9378 16.6296 16.0413 16.6089 16.1378 16.5687C16.2343 16.5285 16.3218 16.4696 16.3954 16.3954C16.4696 16.3218 16.5285 16.2343 16.5687 16.1378C16.6089 16.0413 16.6296 15.9378 16.6296 15.8333C16.6296 15.7288 16.6089 15.6254 16.5687 15.5289C16.5285 15.4324 16.4696 15.3448 16.3954 15.2713ZM3.95834 8.70834C3.95834 7.76887 4.23692 6.85051 4.75886 6.06938C5.28079 5.28824 6.02264 4.67942 6.89059 4.31991C7.75854 3.96039 8.7136 3.86633 9.63502 4.04961C10.5564 4.23289 11.4028 4.68528 12.0671 5.34958C12.7314 6.01388 13.1838 6.86025 13.3671 7.78166C13.5503 8.70307 13.4563 9.65813 13.0968 10.5261C12.7372 11.394 12.1284 12.1359 11.3473 12.6578C10.5662 13.1798 9.6478 13.4583 8.70834 13.4583C7.44856 13.4583 6.24038 12.9579 5.34958 12.0671C4.45878 11.1763 3.95834 9.96811 3.95834 8.70834Z" fill="#3B5165"/>
</svg>
