<svg width="45" height="50" viewBox="0 0 45 50" fill="none" xmlns="http://www.w3.org/2000/svg">
<path d="M2.232 48H6.468V46.332H2.232V48ZM2.232 41.268H6.468V39.6H2.232V41.268ZM2.232 44.4H6.228V42.768H2.232V44.4ZM0.888 39.6V48H2.832V39.6H0.888ZM11.0345 44.616L8.98247 39.6H6.61847L11.0345 48.528L15.4625 39.6H13.0865L11.0345 44.616ZM17.0867 48H21.3227V46.332H17.0867V48ZM17.0867 41.268H21.3227V39.6H17.0867V41.268ZM17.0867 44.4H21.0827V42.768H17.0867V44.4ZM15.7427 39.6V48H17.6867V39.6H15.7427ZM28.1692 39.6V44.328L22.3732 39.18V48H24.3172V43.272L30.1252 48.42V39.6H28.1692ZM30.4605 41.412H32.7645V48H34.7925V41.412H37.1085V39.6H30.4605V41.412ZM38.3511 45.048L36.9351 46.068C37.1271 46.468 37.3951 46.836 37.7391 47.172C38.0831 47.508 38.4871 47.776 38.9511 47.976C39.4231 48.168 39.9311 48.264 40.4751 48.264C40.8671 48.264 41.2471 48.204 41.6151 48.084C41.9911 47.972 42.3231 47.804 42.6111 47.58C42.9071 47.356 43.1391 47.08 43.3071 46.752C43.4831 46.416 43.5711 46.036 43.5711 45.612C43.5711 45.26 43.5151 44.948 43.4031 44.676C43.2911 44.404 43.1351 44.164 42.9351 43.956C42.7431 43.748 42.5191 43.572 42.2631 43.428C42.0071 43.276 41.7311 43.144 41.4351 43.032C41.0431 42.896 40.7071 42.768 40.4271 42.648C40.1551 42.528 39.9431 42.396 39.7911 42.252C39.6471 42.108 39.5751 41.94 39.5751 41.748C39.5751 41.564 39.6511 41.412 39.8031 41.292C39.9551 41.164 40.1751 41.1 40.4631 41.1C40.6791 41.1 40.8791 41.144 41.0631 41.232C41.2551 41.312 41.4271 41.428 41.5791 41.58C41.7391 41.724 41.8791 41.896 41.9991 42.096L43.5471 41.232C43.4031 40.944 43.1951 40.66 42.9231 40.38C42.6511 40.1 42.3071 39.868 41.8911 39.684C41.4831 39.5 40.9991 39.408 40.4391 39.408C39.8951 39.408 39.3991 39.504 38.9511 39.696C38.5111 39.88 38.1591 40.152 37.8951 40.512C37.6391 40.872 37.5111 41.3 37.5111 41.796C37.5111 42.212 37.5871 42.568 37.7391 42.864C37.8911 43.152 38.0831 43.4 38.3151 43.608C38.5471 43.808 38.7911 43.972 39.0471 44.1C39.3111 44.228 39.5431 44.328 39.7431 44.4C40.1511 44.552 40.4791 44.688 40.7271 44.808C40.9751 44.928 41.1551 45.056 41.2671 45.192C41.3791 45.32 41.4351 45.492 41.4351 45.708C41.4351 45.964 41.3391 46.168 41.1471 46.32C40.9551 46.464 40.7111 46.536 40.4151 46.536C40.1351 46.536 39.8671 46.476 39.6111 46.356C39.3631 46.236 39.1311 46.064 38.9151 45.84C38.7071 45.616 38.5191 45.352 38.3511 45.048Z" fill="#000000"/>
<path d="M38.6849 3.11874L27.52 0L16.3225 3.14989L5.90943 0.199976C5.68629 0.136755 5.45152 0.126068 5.22355 0.168757C4.99558 0.211446 4.78063 0.306346 4.59559 0.446002C4.41055 0.585657 4.26046 0.766262 4.15712 0.973625C4.05378 1.18099 3.99999 1.40946 4 1.64108V27.1512C4.00113 27.5421 4.12935 27.9221 4.36536 28.2339C4.60137 28.5458 4.93241 28.7727 5.30868 28.8805L16.32 32L27.5223 28.8488L38.0961 31.8024C38.319 31.8647 38.5533 31.8746 38.7807 31.8313C39.0081 31.788 39.2224 31.6928 39.4068 31.553C39.5912 31.4133 39.7407 31.2328 39.8436 31.0257C39.9465 30.8187 40.0001 30.5906 40 30.3594V4.84984C39.999 4.45776 39.8701 4.07667 39.6328 3.7643C39.3955 3.45194 39.0627 3.22531 38.6849 3.11874ZM15.025 29.1415L6.4 26.698V2.83023L15.025 5.27369V29.1415ZM26.3211 26.6963L17.425 29.1988V5.32971L26.3211 2.82723V26.6963ZM37.6 29.1747L28.7211 26.6949V2.82416L37.6 5.3041V29.1747Z" fill="#000000"/>
</svg>
