<svg width="36" height="52" viewBox="0 0 36 52" fill="currentColor" xmlns="http://www.w3.org/2000/svg">
<path d="M33.71 17.2899L18.71 2.28994C18.5226 2.10369 18.2692 1.99915 18.005 1.99915C17.7408 1.99915 17.4874 2.10369 17.3 2.28994L2.3 17.2899C2.13617 17.4812 2.05056 17.7273 2.06029 17.979C2.07001 18.2307 2.17434 18.4694 2.35243 18.6475C2.53053 18.8256 2.76927 18.9299 3.02094 18.9396C3.27262 18.9494 3.5187 18.8638 3.71 18.6999L18 4.40994L32.29 18.7099C32.4813 18.8738 32.7274 18.9594 32.979 18.9496C33.2307 18.9399 33.4695 18.8356 33.6476 18.6575C33.8257 18.4794 33.93 18.2407 33.9397 17.989C33.9494 17.7373 33.8638 17.4912 33.7 17.2999L33.71 17.2899Z" fill="#333333"/>
<path d="M28 31.9999H23V21.9999H13V31.9999H8V17.9999L6 19.9999V31.9999C6 32.5303 6.21071 33.039 6.58579 33.4141C6.96086 33.7892 7.46957 33.9999 8 33.9999H15V23.9999H21V33.9999H28C28.5304 33.9999 29.0391 33.7892 29.4142 33.4141C29.7893 33.039 30 32.5303 30 31.9999V19.7599L28 17.7599V31.9999Z" fill="#333333"/>
<path d="M1.452 46.4839H7.812V44.6599H1.452V46.4839ZM6.528 41.5999V49.9999H8.556V41.5999H6.528ZM0.888 41.5999V49.9999H2.916V41.5999H0.888ZM11.3896 45.7999C11.3896 45.3039 11.4856 44.8679 11.6776 44.4919C11.8776 44.1079 12.1536 43.8079 12.5056 43.5919C12.8656 43.3759 13.2856 43.2679 13.7656 43.2679C14.2536 43.2679 14.6736 43.3759 15.0256 43.5919C15.3776 43.8079 15.6496 44.1079 15.8416 44.4919C16.0336 44.8679 16.1296 45.3039 16.1296 45.7999C16.1296 46.2959 16.0296 46.7359 15.8296 47.1199C15.6376 47.4959 15.3616 47.7919 15.0016 48.0079C14.6496 48.2239 14.2376 48.3319 13.7656 48.3319C13.2856 48.3319 12.8656 48.2239 12.5056 48.0079C12.1536 47.7919 11.8776 47.4959 11.6776 47.1199C11.4856 46.7359 11.3896 46.2959 11.3896 45.7999ZM9.24159 45.7999C9.24159 46.4479 9.34959 47.0439 9.56559 47.5879C9.78959 48.1319 10.1016 48.6039 10.5016 49.0039C10.9096 49.4039 11.3896 49.7159 11.9416 49.9399C12.4936 50.1559 13.1016 50.2639 13.7656 50.2639C14.4216 50.2639 15.0256 50.1559 15.5776 49.9399C16.1296 49.7159 16.6056 49.4039 17.0056 49.0039C17.4136 48.6039 17.7256 48.1319 17.9416 47.5879C18.1656 47.0439 18.2776 46.4479 18.2776 45.7999C18.2776 45.1519 18.1656 44.5599 17.9416 44.0239C17.7176 43.4879 17.4016 43.0239 16.9936 42.6319C16.5856 42.2399 16.1056 41.9399 15.5536 41.7319C15.0096 41.5159 14.4136 41.4079 13.7656 41.4079C13.1256 41.4079 12.5296 41.5159 11.9776 41.7319C11.4256 41.9399 10.9456 42.2399 10.5376 42.6319C10.1296 43.0239 9.80959 43.4879 9.57759 44.0239C9.35359 44.5599 9.24159 45.1519 9.24159 45.7999ZM21.1371 45.7159L23.4291 49.2199L25.7331 45.7159L26.2371 49.9999H28.3731L27.0171 41.1799L23.4291 46.3039L19.8531 41.1799L18.4971 49.9999H20.6331L21.1371 45.7159ZM30.4086 49.9999H34.6446V48.3319H30.4086V49.9999ZM30.4086 43.2679H34.6446V41.5999H30.4086V43.2679ZM30.4086 46.3999H34.4046V44.7679H30.4086V46.3999ZM29.0646 41.5999V49.9999H31.0086V41.5999H29.0646Z" fill="#333333"/>
</svg>
